<svg xmlns="http://www.w3.org/2000/svg" viewBox="0 0 762.86 701.02"><defs><style>.cls-1{fill:#11c1a7;}.cls-2{fill:#e2e2e2;}.cls-3{fill:#231f20;}.cls-24,.cls-3{opacity:0.1;}.cls-4{fill:#ecf0f1;}.cls-5{fill:#34495e;}.cls-6{fill:#ff614f;}.cls-7{fill:#f7d546;}.cls-8{fill:#e2e1e0;}.cls-9{fill:#f95a78;}.cls-10,.cls-16,.cls-22{opacity:0.5;}.cls-11{fill:#0061fa;opacity:0.06;}.cls-12{fill:#e8e8e8;}.cls-13{fill:#fc5454;}.cls-14{fill:#033;}.cls-15{fill:#366;}.cls-15,.cls-16,.cls-17,.cls-18,.cls-21,.cls-23,.cls-24,.cls-25,.cls-27,.cls-28{fill-rule:evenodd;}.cls-17,.cls-22{fill:#fff;}.cls-17{opacity:0.8;}.cls-18{fill:#cecece;}.cls-19{opacity:0.2;}.cls-20{opacity:0.3;}.cls-21{fill:#333;}.cls-23{fill:#f47f74;}.cls-24{fill:#020202;}.cls-25{fill:#fabe00;}.cls-26{fill:#e6e8e8;}.cls-27{fill:#fdb940;}.cls-28{fill:#f9623e;}.cls-29{fill:#ff3e03;}</style></defs><title>Asset 2</title><g id="Layer_2" data-name="Layer 2"><g id="Web_and_Development" data-name="Web and Development"><g id="Web_Security" data-name="Web Security"><g id="Web_Security-2" data-name="Web Security"><g id="Globe"><ellipse class="cls-1" cx="572.86" cy="187.39" rx="190" ry="187.39"/><path class="cls-2" d="M678.69,284.68c-1.2,0-2.64-2.25-4.2-3.67s-9.93.39-11.93.39-3-.87-4.88-2-3.84.24-5.29.55-2.08-.95-1.2-2.53-3-1.18-5.84-.63-1.76,2-4.08,1.18,2.72-3.4,4.4-5.37-.32-5.29-1.28-5.61-2.8-3.16-5.68-5.37-5-.56-8.49-.56-4.24-1.5-5.85-2.68-1.12-3.55-7.53-6.87-3.68-1.5-3.28-2.13,1-.55-1.2-1.58S608.27,249,606,249.9a11.43,11.43,0,0,1-5.92.39c-1-.24-2.08-2.53-3.21-3a6.77,6.77,0,0,1-2.8-2.61c-.72-1.1-3-.63-3,1.42s-1.12,3.24-3.36,4.11-1.28-2.45-1.28-3.48,2-2.05,2.16-3.63-2,1.5-4.08,3.71-3.53.16-7.53.55-2.08,4.5-2.08,6.79-3.36,3.08-3.92,2.53-.56-1.82-1.76-1.82-1.52-1.9-1.84-2.61-4.41-1.42-5.92,1.42-3.12.55-5,0-5.44-7.66-4.64-8.92.8-1.82-.08-2.69-.48-1.5.24-2.84,2.64-2.61-1.2-5.05-9.85-.32-13.05-.63-.64-2.61,0-3.23a15.81,15.81,0,0,0,2.56-4.74c.64-1.9-.56-2.05.56-4.58s.8-4.26-1.76-4.42-5,1.74-5.12,5.37-3.84,3.47-12.33,2.84-7.69-7.26-8.65-12.64,1.76-9.95,1.92-12.63,3.53-5.69,6.73-8.05c3-2.23,7.2-1.83,7.71-1.77h.09c.54.11,6.22,1.27,8.05,1.12s.32-1.58.48-3.47,9.45-.63,11-.63,1.28,1.26,3,3,1.44-1.71,3.2-1.4.32,1.42,2.89,5.53,2.08,5.53,2.88,9,2.56,1.74,3.68-1.11-1.28-12-1.92-16.74,3.68-3,7.84-7.42,8.49-4.74,10.41-7.9-.16-8.37,1-5.53,1.28-1.1,1.44-4.1,1.76-4.26,2.56-2.53,1.76.47,2.4-2.53,3.36-6.08,4.64-7.58,3.84-.08,7.37,0,.16-.63-.88-4.11,2.24-4.66,3.6-4.66,7.21-3.08,8.49-3.87,3-.71,5.2.95-2.08.39-3.52,2.84,2.08,2.76,3.6.55,4.88-1.18,7.76-4-3.28-1.82-4.64-2.21-2.21-3.71-2.08-4.78a7.47,7.47,0,0,0-2.28-5c-1.44-1.18-5.16.12-8.41,1.42s-4.2,2.49-4,.94,5.65-5.09,7.09-5.33a16.6,16.6,0,0,0,7.44-4c1.92-2.13,7.45.36,10,.59s6.13,1.66,7.45-.12,2.4-1.77,5-2.13,3.12-4.15,1.32-5.8-4.45-7.7-8.17-9.59-2.28-3.08-1.08-4.62-3.76-5.33-5.36-9.28.16-4.89-1.76-5.05-.64,2.84-1.6,5.53-5,1.26-5.61,1.11-2.89-2.84-2.73-5.37.8-4.74,0-5.53-2.56-.16-3.52-1.11-2.24-3.79-3.68-5.05-4.64-.47-6.89-.95-4.32.32-3.84,1.74.16,3.32-.64,8.37-2.4,2.37-3.68,3.63.8,1.58,1.92,5.21-1.44,6.32-2.56,7.42-4.8,1.89-7.21,2.68.16,3.79.48,6.32-2.08,6.16-3.36,6.63S577,106,576.64,103s2.56-6.32,1.28-7.26S571.67,94.81,567,91s-10.25-5.85-12.17-10.43,1.92-8.68,3.53-12,4.8-2.85,9.93-4.74,1.92-3.63,3.2-3.63,5.45-.63,6.41-1.9,3.2-2.53,5.28-3.63,2.57-3.32,3.36-4.58,3,1.74,5.61,1.42,2.4.47,5.93-1.11.48-2.53.16-4.26,2.24-1.26,1.44-3.16-4.32-3.79-6.65-3.47.72,2.53-1.68,4.74-1.92,3.63-2.72,3.95-4.32-.79-4.32-1.9,1.6-2.05,2.24-2.53-.48-2.84-.8-3.63-1.76.95-2.08,2.53-2.08,1.74-1.6.32-1.28-3.16-2.56-4.9,1.28-1.58,2.72-3.79,1-3.16-1-4.26-4.16.63-6.4,3-1.44,2.21-.64,5.21,0,0,.48,2.85S571,43.64,571,43.64a15,15,0,0,1-2.89-.47c-.8-.32,0-1.42-1.76-2.05-1.21-.43-2,.77-2.33,1.57a1.06,1.06,0,0,1-1,.62c-1.43,0-4.51-.13-6-.13-1.92,0-4.64-.95-5.13-1.74a7.31,7.31,0,0,0-5-2.37c-2.08,0-2.89,1.74-2.89,3.79s-3.52,2.21-3.36,1.26a12.16,12.16,0,0,0-.22-2.73,1.07,1.07,0,0,0-1.59-.76l-.31.18a1.07,1.07,0,0,1-.6.14c-1.17-.07-5.23-.32-6.73-.45a1.27,1.27,0,0,1-1.23-1.33,1.07,1.07,0,0,1,1-1.12l2.65-.24.48-.79a6.07,6.07,0,0,0-1.92-1.26c-.78-.26-3.65-.82-4.72-1a1.05,1.05,0,0,1-.65-.41l-.71-1a1.07,1.07,0,0,0-.86-.44h-2.18c-.8,0-2.08,1.58-2.72,1.58s-.64-1.74-.64-1.74l.32-1.42-1.6.79-.24.11a1.07,1.07,0,0,1-1.42-1.39,1.07,1.07,0,0,0,.07-.3l.15-1.58s-1-1.11-1-.32a3.31,3.31,0,0,1-3,2.37c-1.44-.16-2.4,1.26-4.48.79s-6.09.95-8.33,2.84-3.68,2.53-3.2.32-6.24-1.89-7.37-2.37A36.24,36.24,0,0,0,483,31.48,3.87,3.87,0,0,1,479.6,29l-.74-2.61a1.08,1.08,0,0,0-1.55-.65,190.36,190.36,0,0,0-36.69,26.14,1.08,1.08,0,0,0-.21,1.33,29.38,29.38,0,0,0,3.16,5,2,2,0,0,0,2.24,0,131,131,0,0,0-11.69,9.27c-7.21,6.27-4.8,7-4.8,9.37a2.34,2.34,0,0,0,.27,1.3,1.07,1.07,0,0,1-.06,1.37c-1.74,1.77-4.85,4.91-6,6-1.43,1.41-3.89,3.33-4.39,3.72a1,1,0,0,0-.17.16l-2.81,3.39.7.26a1.07,1.07,0,0,0,1.05-.18L434.7,79a1.06,1.06,0,0,1,.36-.2c.32-.1.92-.34,1-.78a7.38,7.38,0,0,1,1.44-2.73,12.5,12.5,0,0,0,1.76-2.36,1.06,1.06,0,0,1,.41-.37A11.12,11.12,0,0,0,441.84,71c1.32-1.18,2.64-3,3.72-3.08s0,1.54-1.92,3.08c-.21.17-.42.35-.63.55a1.07,1.07,0,0,0,1.25,1.72c1.45-.8,2.88-1.61,3.7-2.15,2.16-1.42,1.44-3.55,2.28-3.67s2.76,1.66,3.36,3.44,1.32-.36,4.57,0,1.08,2.84,2.28,4.5,1.2,2.13,4.32,1.42c2.82-.64-.44,5.29-1.09,6.44a1,1,0,0,0-.13.42l-.18,1.74a1.07,1.07,0,0,0,.19.72,8.65,8.65,0,0,1,1,1.57c0,.15-.55,1.83-1,3.09a1.07,1.07,0,0,0,1,1.41h.92a9.48,9.48,0,0,1-2.16,1.9c-1.2.71.24,2.6,1.44,3.55s0,0-1.68,3.79,0,2.61,1.92,5.21a69.38,69.38,0,0,0,4.56,5.45c1.44,1.66,0,5.45-1.44,5.69a5.55,5.55,0,0,1-2.94-1,1.07,1.07,0,0,0-1.62.93c.14,32.6-2.2,9.89-3.37,12.9s-2.88,4.74-2.88,6.64a11.59,11.59,0,0,1-1.92,7.34c-1.92,2.61-.24,8.53,0,9.24s1.3,2.85,1.65,3.56a1.07,1.07,0,0,1,.11.47v9.47c0,3.16,5.77,4.73,7.69,7.42s1.44,7.9,1.6,8.76a10.23,10.23,0,0,0,2.49,4c1.12,1,1.2,2.76,2.08,4.35s-1.36,1-1.6,3.08,2,2.13,3.21,2.61,2.4,1.18,1.76,3.39-.32,1.42.88,2.68.64.47,1.28,2.85,2.24,1.34,2.24,1.34v1.42c0,.4,1.44.79,1.44.79l1-1.42s-.72-.31-.72-.55,0-.47-.08-.79a1.07,1.07,0,0,0-.66-.86l-1.07-.43a1.07,1.07,0,0,1-.64-.75,6.26,6.26,0,0,1-.19-1.11V202c0-.12-.12-.24-.27-.33a1.1,1.1,0,0,1-.55-.9c0-.73-.06-1.91-.06-2.72,0-1.26-2.08-2.45-2.16-3a8.71,8.71,0,0,0-1-3.55c-.8-1.18-2.72-3.71-2.64-6.4s-.64-4.42.4-4.42,2.8,2.61,3.28,3.08.08,3.63,2.08,6.55,7.19,8.92,6.71,9.4-1.8.3-1.08,2.07,2.46,2.19,3.78,2.55,3.48,7.58,4.93,9.95-.36,2.37-.72,3.91.12,2.37,2.53,3.44,1.92,3.67,4.68,4.5,8.17,4.31,9.61,4.62,1.28,1.58,3.21,1.75a5.13,5.13,0,0,1,3.2,1.41c1,.63,4.32-.63,5-1.11s1.28-.32,3,0,6.88,5.69,8.49,7.26,2.88-.63,4.16,0S538,242.16,539,242s1-.95,1.6-.95.16,1.26,2.56,4.26,1.92,3.63,1.92,4.11,1.12,2.84,2.72,2.53a3.69,3.69,0,0,1,2.8,1,1.07,1.07,0,0,1,.4.84v1.13a1.06,1.06,0,0,0,1,1.07,50.34,50.34,0,0,1,5.57.57c1.11.32,1.29,2.68,1.77,3s2.4-1.89,2.08-3.16,2.08-1.89,3-2.84,2.24,1.1,3,2.05,2.56,3.32,2.56,5.21-.16,4.74-.16,7.74-2.4,4.42-4.16,6.47-3.36,3-4.16,3.95-1.44,3.95-1.12,5.69,2.56.16,2.56,2.21-2.08.95-4.48,2.85.32,2.05,1.12,3.63-1.12.32-1.12,2.21,2.88,1.58,5.6,2.37,5.61,7.74,7.21,11.37,3.2,6.79,4.8,7.43,1.76,2.05,5.13,2.84,6,3.4,7.89,3.4,1.83,3.2,1.24,4.5-.12,1.66.36,6.4-1.08,15.4-1.6,16.58-.37.95.51,1.82-1.44,4.66-1.52,5.84-2.32,1.9-2.78,3,1.1,1.1,1.42,2.13-.64,3.55.32,4.5,1.84.63,2.09,2.13a2.51,2.51,0,0,1-2.49,2.92c-1.6,0-1.6,1.66-.88,1.11a1.65,1.65,0,0,1,1.68,0l1.2,0c.52-.07,1.29-.16,2.24-.2,1.32-.05,1.67.05,2.7,0,1.26-.07,1.08-.24,3-.5,1.6-.21,2.2-.16,3.5-.44a11.38,11.38,0,0,0,1.5-.37,4.22,4.22,0,0,1,1.19-.37c.66-.06.84.19,1,.06.45-.35-.92-2.39-1.48-5.43-.26-1.42-.1-1.69,0-1.81.75-.72,3.33.93,5.11.23,2.4-.95,1.6-4.11,5-4.58s7-3.47,8.49-5.68-.64-3.32,4.64-2.69,10.09-6,14.25-10.9.48-6.48,7.85-11.05,19.29-17,20-20.93-1.32-4,2.88-6.75,9.49-10.3,10-12.43S679.89,284.68,678.69,284.68Z"/><path class="cls-2" d="M666.69,76.07c-6.09,0-7.37,6-1.92,6.95s16.66.95,18.57,8.85-5.76,10.11,0,13.9-1.28,7.9-1.28,13.27a15.49,15.49,0,0,0,6.4,12.64c3.84,2.84,7.69,6.63,8,8.84s4.16,1.58,4.16,1.58a8.36,8.36,0,0,1,0-3.16c.32-1.9,3.53-4.11,3.53-9.48s2.86-5.05,5.11-4.74,6.74-.32,8,0,9,.32,9.61-3.47-5.13-9.47-5.13-9.47,3.24-5.29,3.2-7.7a13.54,13.54,0,0,0-.9-3.16,190.5,190.5,0,0,0-52.48-32.71C671.6,71.16,670.93,76.07,666.69,76.07Z"/><path class="cls-2" d="M503.19,535.51c-7.23.75-10.08,3.32-9.71,4.5s6.51,1.12,6.79,7.54-.64,10,3.22,12,.36,10,7.25,8.64,5.94-.5,9-3.57,6.6,1.78,6.91,2.6a79.92,79.92,0,0,0-17.18-30.59l-.76-.81A15.69,15.69,0,0,0,503.19,535.51Z"/><path class="cls-3" d="M590.44,374.77c96.69-8.75,172.42-88.94,172.42-186.58,0-92.4-67.81-169.17-157-184.57C716,47.34,770.79,312.67,590.44,374.77Z"/></g><g id="Web"><path class="cls-4" d="M691.62,536.43a9.09,9.09,0,0,1-.91,12.82L525,698.57a9.09,9.09,0,0,1-12.85-.42L406.28,580.67a9.09,9.09,0,0,1,.91-12.82l165.7-149.33a9.09,9.09,0,0,1,12.84.42Z"/><path class="cls-5" d="M571.89,417.41,406.2,566.74a9.09,9.09,0,0,0-.91,12.82l23.11,25.65L607.85,443.48l-23.11-25.65A9.09,9.09,0,0,0,571.89,417.41Z"/><ellipse class="cls-6" cx="553.16" cy="446.97" rx="4.63" ry="4.45" transform="translate(-156.98 485.26) rotate(-42.03)"/><ellipse class="cls-7" cx="564.53" cy="436.72" rx="4.63" ry="4.45" transform="translate(-147.2 490.23) rotate(-42.03)"/><ellipse class="cls-1" cx="576.38" cy="426.04" rx="4.63" ry="4.45" transform="translate(-137 495.42) rotate(-42.03)"/><path class="cls-8" d="M545,463.63a7,7,0,0,1-.71,9.93L439.39,568.07a7,7,0,0,1-9.95-.32h0a7,7,0,0,1,.71-9.93L535,463.31a7,7,0,0,1,9.94.32Z"/><rect class="cls-9" x="448.75" y="547.11" width="144.07" height="70.29" transform="translate(-255.87 498.38) rotate(-42.03)"/><rect class="cls-10" x="475.71" y="591.55" width="217.91" height="12.87" transform="translate(-249.98 545.19) rotate(-42.03)"/><rect class="cls-10" x="488.21" y="605.61" width="217.91" height="12.87" transform="translate(-256.18 557.17) rotate(-42.03)"/><path class="cls-11" d="M572.16,417.51,489.4,492.09,607.22,622.82,690,548.24a9.09,9.09,0,0,0,.91-12.82L585,417.93A9.09,9.09,0,0,0,572.16,417.51Z"/></g></g></g><g id="Setting_System" data-name="Setting System"><g id="Setting_System-2" data-name="Setting System"><g id="Line"><path class="cls-12" d="M224.67,271.16l-13.44-10.51L207,266.06c-2.64,3.18-5.72,7.75-8.93,12.22s-6.44,8.94-8.72,12.38l-3.72,5.79,14.28,9.32,3.59-5.61c2.2-3.33,5.37-7.61,8.42-12s6.09-8.74,8.65-11.81S224.67,271.16,224.67,271.16Z"/><path class="cls-12" d="M266.75,223.79l-12-12.14s-2,1.85-4.85,4.88l-10.45,11c-3.88,3.91-7.39,8.16-10.11,11.26l-4.5,5.2,13,11.06,4.36-5c2.63-3,6-7.12,9.77-10.89l10.1-10.59C264.77,225.57,266.75,223.79,266.75,223.79Z"/></g><g id="Setting"><path class="cls-13" d="M285.57,435.28"/></g><g id="Laptop"><rect class="cls-14" x="64.19" y="188.01" width="174.32" height="8.09"/><path class="cls-15" d="M280.9,89.51H18.71C6.69,89.51,3,97.06,5.3,106c0-.1,0-.21,0-.32a6.14,6.14,0,0,0,.18,1.84l19,71.63c2.87,10.87,5.44,11.21,19.59,11.19l219.22,0c11.38,0,16.93,0,19.19-10.9l14.77-71.9a5.88,5.88,0,0,0,.1-.82v0l.72-6.09C299.1,91.85,287.58,89.51,280.9,89.51ZM5.44,104.7a4.46,4.46,0,0,0-.09.51A4.46,4.46,0,0,1,5.44,104.7ZM6,103c0,.08-.08.16-.12.24C5.92,103.19,6,103.11,6,103Zm-.32.77c0,.14-.1.28-.14.42C5.58,104.08,5.64,103.95,5.68,103.8Zm10.7-7c.4,0,.79-.05,1.18-.05C17.17,96.74,16.78,96.76,16.39,96.79ZM9.1,99.51l.08-.07Zm.86-.58.16-.1Zm.94-.53.25-.13Zm1-.47.33-.14Zm1.06-.4.43-.13Zm1.11-.33.53-.12Zm1.14-.25.7-.1Z"/><path class="cls-16" d="M18.71,89.51H280.9c6.68,0,18.2,2.34,17.19,11.09l-.72,6.09c-1-4.53-6.62-9.95-12.17-9.95H17.57c-6,0-12.33,4.17-12.27,9.23C3,97.06,6.69,89.51,18.71,89.51Z"/><polygon class="cls-17" points="18.65 101.8 285.56 101.51 271.16 184.93 35.39 185 18.65 101.8"/><path class="cls-18" d="M31.76,192.75h240.7a7.28,7.28,0,0,1,7.26,7.25V332.74a7.28,7.28,0,0,1-7.26,7.25H31.76a7.28,7.28,0,0,1-7.25-7.25V200a7.28,7.28,0,0,1,7.25-7.25Z"/><path class="cls-19" d="M279.72,200a7.28,7.28,0,0,0-7.26-7.25H252.2L98.77,340H272.46a7.28,7.28,0,0,0,7.26-7.25Z"/><rect class="cls-14" x="118.01" y="295.09" width="68.19" height="35.69"/><rect class="cls-20" x="37.16" y="205.19" width="229.9" height="83.57"/><path class="cls-20" d="M179.86,313.26c0,8.5-1.47,15.39-3.28,15.39H126c-1.82,0-3.28-6.89-3.28-15.39h0c0-8.5,1.46-15.38,3.28-15.38h50.6c1.81,0,3.28,6.89,3.28,15.38Z"/><g id="Keyboard"><path class="cls-21" d="M42.14,210.13H52.81a1.34,1.34,0,0,1,1.13,1.48v11.49a1.35,1.35,0,0,1-1.13,1.49H42.14A1.36,1.36,0,0,1,41,223.11V211.62a1.36,1.36,0,0,1,1.15-1.48Z"/><path class="cls-21" d="M59.45,210.13H70.13a1.36,1.36,0,0,1,1.15,1.48v11.49a1.37,1.37,0,0,1-1.15,1.49H59.45a1.37,1.37,0,0,1-1.15-1.49V211.62a1.36,1.36,0,0,1,1.15-1.48Z"/><path class="cls-21" d="M76.8,210.13H87.45a1.36,1.36,0,0,1,1.15,1.48v11.49a1.37,1.37,0,0,1-1.15,1.49H76.8a1.36,1.36,0,0,1-1.16-1.49V211.62a1.36,1.36,0,0,1,1.16-1.48Z"/><path class="cls-21" d="M94.1,210.13h10.66a1.34,1.34,0,0,1,1.15,1.48v11.49a1.35,1.35,0,0,1-1.15,1.49H94.1A1.37,1.37,0,0,1,93,223.11V211.62a1.36,1.36,0,0,1,1.15-1.48Z"/><path class="cls-21" d="M111.42,210.13H122.1a1.36,1.36,0,0,1,1.15,1.48v11.49a1.36,1.36,0,0,1-1.15,1.49H111.42a1.37,1.37,0,0,1-1.15-1.49V211.62a1.36,1.36,0,0,1,1.15-1.48Z"/><path class="cls-21" d="M128.76,210.13h10.65a1.36,1.36,0,0,1,1.15,1.48v11.49a1.36,1.36,0,0,1-1.15,1.49H128.76a1.37,1.37,0,0,1-1.15-1.49V211.62a1.36,1.36,0,0,1,1.15-1.48Z"/><path class="cls-21" d="M146.07,210.13h10.65a1.34,1.34,0,0,1,1.16,1.48v11.49a1.35,1.35,0,0,1-1.16,1.49H146.07a1.36,1.36,0,0,1-1.15-1.49V211.62a1.36,1.36,0,0,1,1.15-1.48Z"/><path class="cls-21" d="M163.39,210.13h10.68a1.36,1.36,0,0,1,1.15,1.48v11.49a1.37,1.37,0,0,1-1.15,1.49H163.39a1.37,1.37,0,0,1-1.15-1.49V211.62a1.36,1.36,0,0,1,1.15-1.48Z"/><path class="cls-21" d="M180.73,210.13h10.64a1.36,1.36,0,0,1,1.15,1.48v11.49a1.36,1.36,0,0,1-1.15,1.49H180.73a1.35,1.35,0,0,1-1.16-1.49V211.62a1.34,1.34,0,0,1,1.16-1.48Z"/><path class="cls-21" d="M198,210.13h10.64a1.34,1.34,0,0,1,1.16,1.48v11.49a1.35,1.35,0,0,1-1.16,1.49H198a1.36,1.36,0,0,1-1.15-1.49V211.62a1.36,1.36,0,0,1,1.15-1.48Z"/><path class="cls-21" d="M215.35,210.13H226a1.35,1.35,0,0,1,1.15,1.48v11.49A1.36,1.36,0,0,1,226,224.6H215.35a1.36,1.36,0,0,1-1.15-1.49V211.62a1.35,1.35,0,0,1,1.15-1.48Z"/><path class="cls-21" d="M68.15,230.2H78.8a1.36,1.36,0,0,1,1.15,1.48v11.49a1.36,1.36,0,0,1-1.15,1.48H68.15A1.36,1.36,0,0,1,67,243.18V231.69a1.36,1.36,0,0,1,1.16-1.48Z"/><path class="cls-21" d="M85.46,230.2H96.13a1.36,1.36,0,0,1,1.16,1.48v11.49a1.36,1.36,0,0,1-1.16,1.48H85.46a1.36,1.36,0,0,1-1.15-1.48V231.69a1.36,1.36,0,0,1,1.15-1.48Z"/><path class="cls-21" d="M102.77,230.2h10.68a1.36,1.36,0,0,1,1.15,1.48v11.49a1.36,1.36,0,0,1-1.15,1.48H102.77a1.34,1.34,0,0,1-1.13-1.48V231.69a1.34,1.34,0,0,1,1.13-1.48Z"/><path class="cls-21" d="M120.11,230.2h10.65a1.36,1.36,0,0,1,1.15,1.48v11.49a1.36,1.36,0,0,1-1.15,1.48H120.11a1.36,1.36,0,0,1-1.15-1.48V231.69a1.36,1.36,0,0,1,1.15-1.48Z"/><path class="cls-21" d="M137.43,230.2H148.1a1.34,1.34,0,0,1,1.13,1.48v11.49a1.34,1.34,0,0,1-1.13,1.48H137.43a1.36,1.36,0,0,1-1.15-1.48V231.69a1.36,1.36,0,0,1,1.15-1.48Z"/><path class="cls-21" d="M154.74,230.2h10.68a1.36,1.36,0,0,1,1.15,1.48v11.49a1.36,1.36,0,0,1-1.15,1.48H154.74a1.36,1.36,0,0,1-1.15-1.48V231.69a1.36,1.36,0,0,1,1.15-1.48Z"/><path class="cls-21" d="M172.08,230.2h10.65a1.36,1.36,0,0,1,1.15,1.48v11.49a1.36,1.36,0,0,1-1.15,1.48H172.08a1.36,1.36,0,0,1-1.15-1.48V231.69a1.36,1.36,0,0,1,1.15-1.48Z"/><path class="cls-21" d="M189.39,230.2h10.68a1.34,1.34,0,0,1,1.13,1.48v11.49a1.34,1.34,0,0,1-1.13,1.48H189.39a1.36,1.36,0,0,1-1.15-1.48V231.69a1.36,1.36,0,0,1,1.15-1.48Z"/><path class="cls-21" d="M206.71,230.2h10.68a1.36,1.36,0,0,1,1.15,1.48v11.49a1.36,1.36,0,0,1-1.15,1.48H206.71a1.36,1.36,0,0,1-1.15-1.48V231.69a1.36,1.36,0,0,1,1.15-1.48Z"/><path class="cls-21" d="M224,230.2H234.7a1.36,1.36,0,0,1,1.15,1.48v11.49a1.36,1.36,0,0,1-1.15,1.48H224a1.36,1.36,0,0,1-1.15-1.48V231.69A1.36,1.36,0,0,1,224,230.2Z"/><path class="cls-21" d="M232.7,210.13h10.64a1.36,1.36,0,0,1,1.15,1.48v11.49a1.37,1.37,0,0,1-1.15,1.49H232.7a1.35,1.35,0,0,1-1.16-1.49V211.62a1.35,1.35,0,0,1,1.16-1.48Z"/><path class="cls-21" d="M250,210.13h10.65a1.36,1.36,0,0,1,1.16,1.48v11.49a1.36,1.36,0,0,1-1.16,1.49H250a1.37,1.37,0,0,1-1.15-1.49V211.62a1.36,1.36,0,0,1,1.15-1.48Z"/><path class="cls-21" d="M241.64,230.2h19a1.36,1.36,0,0,1,1.16,1.48v11.49a1.36,1.36,0,0,1-1.16,1.48h-19a1.36,1.36,0,0,1-1.16-1.48V231.69a1.36,1.36,0,0,1,1.16-1.48Z"/><path class="cls-21" d="M42.32,230.2H62a1.36,1.36,0,0,1,1.16,1.48v11.49A1.36,1.36,0,0,1,62,244.66H42.32a1.34,1.34,0,0,1-1.16-1.48V231.69a1.34,1.34,0,0,1,1.16-1.48Z"/><path class="cls-21" d="M42.32,250.28H65.89A1.36,1.36,0,0,1,67,251.76v11.5a1.36,1.36,0,0,1-1.15,1.48H42.32a1.35,1.35,0,0,1-1.16-1.48v-11.5a1.34,1.34,0,0,1,1.16-1.48Z"/><path class="cls-21" d="M42.32,270.35H52.94a1.36,1.36,0,0,1,1.15,1.48v11.5a1.36,1.36,0,0,1-1.15,1.48H42.32a1.34,1.34,0,0,1-1.16-1.48v-11.5a1.34,1.34,0,0,1,1.16-1.48Z"/><path class="cls-21" d="M59.61,270.35H70.24a1.36,1.36,0,0,1,1.16,1.48v11.5a1.36,1.36,0,0,1-1.16,1.48H59.61a1.36,1.36,0,0,1-1.16-1.48v-11.5a1.36,1.36,0,0,1,1.16-1.48Z"/><path class="cls-21" d="M76.9,270.35H87.53a1.34,1.34,0,0,1,1.16,1.48v11.5a1.34,1.34,0,0,1-1.16,1.48H76.9a1.36,1.36,0,0,1-1.16-1.48v-11.5a1.36,1.36,0,0,1,1.16-1.48Z"/><path class="cls-21" d="M94.19,270.35H204.95a1.34,1.34,0,0,1,1.15,1.48v11.5a1.34,1.34,0,0,1-1.15,1.48H94.19A1.36,1.36,0,0,1,93,283.33v-11.5a1.36,1.36,0,0,1,1.15-1.48Z"/><path class="cls-21" d="M72.29,250.47H82.93A1.36,1.36,0,0,1,84.09,252v11.5a1.36,1.36,0,0,1-1.16,1.48H72.29a1.36,1.36,0,0,1-1.15-1.48V252a1.36,1.36,0,0,1,1.15-1.48Z"/><path class="cls-21" d="M89.6,250.47h10.68a1.37,1.37,0,0,1,1.15,1.48v11.5a1.36,1.36,0,0,1-1.15,1.48H89.6a1.36,1.36,0,0,1-1.15-1.48V252a1.37,1.37,0,0,1,1.15-1.48Z"/><path class="cls-21" d="M106.91,250.47h10.67a1.36,1.36,0,0,1,1.15,1.48v11.5a1.36,1.36,0,0,1-1.15,1.48H106.91a1.34,1.34,0,0,1-1.13-1.48V252a1.35,1.35,0,0,1,1.13-1.48Z"/><path class="cls-21" d="M124.25,250.47H134.9a1.36,1.36,0,0,1,1.16,1.48v11.5a1.36,1.36,0,0,1-1.16,1.48H124.25a1.36,1.36,0,0,1-1.15-1.48V252a1.36,1.36,0,0,1,1.15-1.48Z"/><path class="cls-21" d="M141.56,250.47h10.68a1.35,1.35,0,0,1,1.13,1.48v11.5a1.35,1.35,0,0,1-1.13,1.48H141.56a1.36,1.36,0,0,1-1.15-1.48V252a1.36,1.36,0,0,1,1.15-1.48Z"/><path class="cls-21" d="M158.88,250.47h10.67A1.36,1.36,0,0,1,170.7,252v11.5a1.36,1.36,0,0,1-1.15,1.48H158.88a1.36,1.36,0,0,1-1.16-1.48V252a1.36,1.36,0,0,1,1.16-1.48Z"/><path class="cls-21" d="M176.21,250.47h10.66A1.36,1.36,0,0,1,188,252v11.5a1.36,1.36,0,0,1-1.15,1.48H176.21a1.36,1.36,0,0,1-1.15-1.48V252a1.36,1.36,0,0,1,1.15-1.48Z"/><path class="cls-21" d="M193.53,250.47h10.68a1.35,1.35,0,0,1,1.13,1.48v11.5a1.35,1.35,0,0,1-1.13,1.48H193.53a1.36,1.36,0,0,1-1.15-1.48V252a1.37,1.37,0,0,1,1.15-1.48Z"/><path class="cls-21" d="M210.85,250.47h19.84a1.37,1.37,0,0,1,1.15,1.48v11.5a1.36,1.36,0,0,1-1.15,1.48H210.85a1.36,1.36,0,0,1-1.16-1.48V252a1.36,1.36,0,0,1,1.16-1.48Z"/><path class="cls-21" d="M237,250.28h23.59a1.36,1.36,0,0,1,1.15,1.48v11.5a1.36,1.36,0,0,1-1.15,1.48H237a1.36,1.36,0,0,1-1.15-1.48v-11.5a1.36,1.36,0,0,1,1.15-1.48Z"/><path class="cls-21" d="M239.08,270.35H248a.47.47,0,0,1,.42.5v4a.48.48,0,0,1-.42.51h-8.88a.46.46,0,0,1-.39-.51v-4a.45.45,0,0,1,.39-.5Z"/><path class="cls-21" d="M239.08,279H248a.47.47,0,0,1,.42.51v3.95a.48.48,0,0,1-.42.51h-8.88c-.22,0-.39-.23-.39-.51v-3.95c0-.29.17-.51.39-.51Z"/><path class="cls-21" d="M225.89,279h8.89a.47.47,0,0,1,.42.51v3.95a.48.48,0,0,1-.42.51h-8.89a.46.46,0,0,1-.39-.51v-3.95a.46.46,0,0,1,.39-.51Z"/><path class="cls-21" d="M252.23,279h8.89a.46.46,0,0,1,.4.51v3.95a.47.47,0,0,1-.4.51h-8.89a.48.48,0,0,1-.42-.51v-3.95a.47.47,0,0,1,.42-.51Z"/><path class="cls-21" d="M210.43,270.35h10.68a1.36,1.36,0,0,1,1.15,1.48v11.5a1.36,1.36,0,0,1-1.15,1.48H210.43a1.35,1.35,0,0,1-1.15-1.48v-11.5a1.35,1.35,0,0,1,1.15-1.48Z"/></g><g id="Light"><polygon class="cls-22" points="181.58 101.51 125.35 101.51 66.41 184.98 101.4 186.21 181.58 101.51"/><polygon class="cls-22" points="209.45 101.58 136.12 184.96 144 184.96 236.39 101.53 209.45 101.58"/></g></g></g></g><g id="Data_Management" data-name="Data Management"><g id="Data_Management-2" data-name="Data Management"><g id="Document"><path class="cls-23" d="M243.9,424.78H106.83c-.59,0-1.17,0-1.82,0h-91A14.11,14.11,0,0,0,0,438.79V568.67a14.1,14.1,0,0,0,14.06,14H236.65a14.1,14.1,0,0,0,14.06-14V431.58A6.82,6.82,0,0,0,243.9,424.78Zm-135,.13h0Zm1.82.23h0Zm11.14,14.71c0,.06.09.12.15.18S121.9,439.9,121.85,439.84Zm-1-1.41,0,.07Zm.43.72.09.14Zm1.2,1.35.22.2Zm.81.61.29.2Zm1,.55.37.18Zm1.16.49.46.17Zm1.36.42.55.14Zm1.58.33.64.12Zm1.87.25.68.07Zm2.23.16.63,0Z"/><path class="cls-24" d="M243.9,424.78H106.83c23.37.89,1.41,19.06,28.73,18.57H250.7V431.58A6.82,6.82,0,0,0,243.9,424.78Z"/><path class="cls-25" d="M135.56,443.34H238a17.54,17.54,0,0,0-16.75-12.54H118.89C120.77,436.36,118.11,443.66,135.56,443.34Z"/><rect class="cls-26" x="69.89" y="469.16" width="110.91" height="64.56"/><rect x="79.76" y="491.07" width="91.16" height="4.29"/><rect x="79.76" y="498.25" width="91.16" height="4.3"/><rect x="79.76" y="505.42" width="91.16" height="4.3"/><rect x="79.76" y="512.6" width="91.16" height="4.29"/><path class="cls-19" d="M199.36,582.72h37.29a14.1,14.1,0,0,0,14.06-14V489.89C240.92,521.31,224.14,562.52,199.36,582.72Z"/><g id="Document-2" data-name="Document"><path class="cls-27" d="M341.45,487.7H177.16c-.7,0-1.41,0-2.18,0H66c-9.26,0-16.85,7.12-16.85,15.81V649.55c0,8.68,7.59,15.81,16.85,15.81h266.8c9.25,0,16.84-7.12,16.84-15.81V495.36A7.93,7.93,0,0,0,341.45,487.7Zm-161.81.15h0Zm2.17.25h0Zm13.35,16.54.18.2ZM194,503.06l0,.09Zm.51.81.11.16Zm1.45,1.52c.08.07.17.15.26.21C196.13,505.53,196,505.45,196,505.38Zm1,.68.35.22Zm1.16.63.45.21Zm1.39.55.55.19Zm1.63.47.65.16Zm1.89.38.76.13Zm2.24.29.82.08Zm2.67.18.75,0Z"/><path class="cls-24" d="M341.45,487.7H177.16c28,1,1.69,21.45,34.44,20.89h138V495.36A7.93,7.93,0,0,0,341.45,487.7Z"/><path class="cls-28" d="M211.6,508.59H334.38c-2.57-8.12-10.61-14.11-20.08-14.11H191.61C193.88,500.73,190.68,508.94,211.6,508.59Z"/><rect class="cls-26" x="132.88" y="537.63" width="132.94" height="72.62"/><rect class="cls-29" x="144.72" y="562.27" width="109.26" height="4.83"/><rect class="cls-29" x="144.72" y="570.34" width="109.26" height="4.82"/><rect class="cls-29" x="144.72" y="578.42" width="109.26" height="4.83"/><rect class="cls-29" x="144.72" y="586.48" width="109.26" height="4.83"/></g></g></g></g></g></g></svg>