<svg xmlns="http://www.w3.org/2000/svg" viewBox="0 0 972.31 1074.7"><defs><style>.cls-1{fill:#34495e;}.cls-12,.cls-2,.cls-33,.cls-35,.cls-8{fill:#fff;}.cls-2{opacity:0.8;}.cls-3{fill:#1abc9c;}.cls-4{fill:#f4bd42;}.cls-5{fill:#f7c7b0;}.cls-6{fill:#586771;}.cls-7{fill:#00bb83;}.cls-38,.cls-8{opacity:0.3;}.cls-23,.cls-35,.cls-9{opacity:0.2;}.cls-10{fill:#fc5454;}.cls-11,.cls-12{opacity:0.4;}.cls-13{opacity:0.5;}.cls-14{fill:#00c6f6;}.cls-15{fill:#3f3f3f;}.cls-16{fill:#20c9a9;}.cls-17{fill:#4c4c4c;}.cls-18{fill:#fffab7;}.cls-19{fill:#ededed;}.cls-20{fill:#88604a;}.cls-21{fill:#785741;}.cls-22{fill:#494949;}.cls-23{fill:#020202;}.cls-24{fill:#6fd3d8;}.cls-25{fill:#0aa5a5;}.cls-26{fill:#fa4000;}.cls-27{fill:#0068e3;}.cls-28{fill:#f95061;}.cls-29{fill:#60fa00;}.cls-30{fill:#d1d3d3;}.cls-31{opacity:0.1;}.cls-32{fill:#0c4670;}.cls-33{opacity:0.6;}.cls-34{fill:#ed3393;}.cls-36{fill:#213b51;}.cls-37{fill:#cecece;}.cls-39{fill:#3a3939;}</style></defs><title>Asset 10</title><g id="Layer_2" data-name="Layer 2"><g id="Web_and_Development" data-name="Web and Development"><g id="Application_Maker" data-name="Application Maker"><g id="Application_Maker-2" data-name="Application Maker"><g id="Tablet"><path class="cls-1" d="M732.88,729.79c0,35.46-4.67,33.44-40.12,33.44H279.44c-35.46,0-38.79-3.33-38.79-38.79V447.55c0-35.46,7.34-37.45,42.8-37.45l397.27-.4c35.46,0,51.81-7.06,51.81,28.41Z"/><path class="cls-2" d="M703.45,712.62c0,31.22-4.1,29.44-35.33,29.44H304.23c-31.22,0-34.15-2.93-34.15-34.15V464.13c0-31.22,6.46-33,37.68-33l349.77-.35c31.22,0,45.61-6.21,45.61,25Z"/><path class="cls-3" d="M355.68,688.32a26.75,26.75,0,0,1-26.75,26.76h0a26.76,26.76,0,0,1-26.76-26.76V489a26.76,26.76,0,0,1,26.76-26.76h0A26.75,26.75,0,0,1,355.68,489Z"/><rect class="cls-4" x="390.46" y="472.97" width="189.94" height="231.41"/><path class="cls-3" d="M597.78,473v38.79h85.61V473Zm79.59,34.78H603.14V477h74.23Z"/><rect class="cls-3" x="597.78" y="540.74" width="85.61" height="38.79"/><rect class="cls-3" x="597.78" y="611.18" width="85.61" height="38.79"/><rect class="cls-3" x="597.78" y="666.25" width="85.61" height="38.79"/><path class="cls-5" d="M90.83,878.78l25.42-115S117.59,745,151,711.57s89.62-106.33,89.62-106.33V705.67l-25.42,46.7,70.88-80.92s48.16-24.22,40.43,29.36c0,0-60.49,85.68-61.83,92.36s-2.68,41.46-29.43,78.92-28.09,49.49-28.09,49.49l-5.35,8Z"/><path class="cls-6" d="M74.78,873.42,223.26,929.6s-12,57.52-32.1,107S1.21,1072.72,1.21,1072.72l16.05-53.5Z"/><path class="cls-7" d="M223.26,929.6,74.78,873.42,61.59,906.87l153.19,57.48C220.26,943.89,223.26,929.6,223.26,929.6Z"/><path class="cls-8" d="M283.45,678.7l36.59,27S332.24,652.38,283.45,678.7Z"/><path class="cls-9" d="M223.26,929.6,147.64,901,84.33,1073.46c46.22-2.53,96.46-11.31,106.82-36.86,19.19-47.34,31-102,32-106.65C223.23,929.75,223.26,929.6,223.26,929.6Z"/><path class="cls-5" d="M882.69,879.1l-25.41-115s-1.34-18.73-34.78-52.17-89.62-106.33-89.62-106.33V706l25.42,46.7-70.9-80.92s-49.11-26.15-40.47,29.29c0,0,60.53,85.75,61.88,92.44s2.68,41.46,29.43,78.92,28.09,49.49,28.09,49.49l5.36,8Z"/><path class="cls-6" d="M898.75,873.75,750.27,929.93s12,57.52,32.1,107,189.94,36.11,189.94,36.11l-16-53.5Z"/><path class="cls-7" d="M750.27,929.93l148.48-56.18,13.19,33.45L758.75,964.69C753.26,944.22,750.27,929.93,750.27,929.93Z"/><path class="cls-8" d="M690.08,679l-36.6,27S641.28,652.71,690.08,679Z"/><path class="cls-9" d="M750.27,929.93l75.62-28.61,63.31,172.48c-46.22-2.53-96.46-11.31-106.82-36.86-19.19-47.34-31-102-32-106.65C750.3,930.08,750.27,929.93,750.27,929.93Z"/></g><g id="Setting"><g id="Setting_2" data-name="Setting 2"><path class="cls-10" d="M85.86,261.9c.09-.1.18-.19.26-.29l78.5-95.81a8.69,8.69,0,0,0-1.21-12.23l-10.09-8.27a8.69,8.69,0,0,0-12.23,1.22l-78.5,95.81c-.09.1-.16.21-.23.31A46.36,46.36,0,0,0,5.67,308.38l30-36.61a8.69,8.69,0,0,1,12.23-1.21l13.45,11a8.7,8.7,0,0,1,1.21,12.23l-30,36.61a46.36,46.36,0,0,0,53.3-68.52Z"/><path class="cls-11" d="M72.27,280.23,48,260.32a8.69,8.69,0,0,0-12.23,1.21l-33,40.29a46.5,46.5,0,0,0,2.94,6.56l30-36.61a8.69,8.69,0,0,1,12.23-1.21l13.45,11a8.7,8.7,0,0,1,1.21,12.23l-30,36.61a46.69,46.69,0,0,0,8.38,1.77l32.54-39.72A8.69,8.69,0,0,0,72.27,280.23Z"/><path class="cls-12" d="M164.91,155.16a8.85,8.85,0,0,0-1.5-1.6l-10.09-8.27a8.84,8.84,0,0,0-1.86-1.15L70.48,243c-3.47,4.23-3.27,10.14.44,13.18s9.54,2.07,13-2.17Z"/><circle class="cls-13" cx="149.91" cy="160.18" r="7.15" transform="translate(-69 174.69) rotate(-50.69)"/></g><g id="Setting1"><path class="cls-14" d="M161.44,246.78c-.09.1-.18.19-.25.29L85.12,344.83A8.69,8.69,0,0,0,86.65,357l10.29,8a8.7,8.7,0,0,0,12.2-1.52l76.05-97.77.22-.32a46.36,46.36,0,0,0,55-67.14l-29.06,37.35a8.69,8.69,0,0,1-12.19,1.52l-13.72-10.68a8.69,8.69,0,0,1-1.52-12.19L213,176.94a46.36,46.36,0,0,0-51.56,69.84Z"/><path class="cls-11" d="M174.56,228.11l24.8,19.3a8.69,8.69,0,0,0,12.2-1.52l32-41.1a46.3,46.3,0,0,0-3.11-6.49l-29.06,37.35a8.69,8.69,0,0,1-12.19,1.52l-13.72-10.68a8.69,8.69,0,0,1-1.52-12.19L213,176.94a46.34,46.34,0,0,0-8.42-1.56L173,215.9A8.7,8.7,0,0,0,174.56,228.11Z"/><path class="cls-12" d="M85.11,355.47A8.81,8.81,0,0,0,86.65,357l10.29,8a8.8,8.8,0,0,0,1.89,1.11l78.46-100.85c3.37-4.33,3-10.23-.77-13.17s-9.58-1.83-12.95,2.49Z"/><circle class="cls-13" cx="99.98" cy="350.08" r="7.15" transform="matrix(0.61, -0.79, 0.79, 0.61, -237.72, 214.03)"/></g></g><g id="Document"><path class="cls-15" d="M428.28,205s5.87-30.4,7.47-30.4,7.47.89,32,7.11,45.33,11.56,45.33,11.56,9.07,2.67,11.2-3.46,1.07-6.14,13.33-2.94,30.93,8.54,30.93,8.54,5.87,2.13,5.87,6.4v7.47l19.21,4.8s7.46,1.6,3.72,14.4-45.86,160-45.86,160Z"/><path class="cls-16" d="M425.08,201.82s5.87-30.4,7.47-30.4,7.46.89,32,7.12,45.33,11.55,45.33,11.55,9.06,2.67,11.2-3.46,1.07-6.13,13.33-2.94,30.94,8.54,30.94,8.54,5.86,2.14,5.86,6.4v7.47l19.21,4.8s7.46,1.6,3.74,14.4-45.87,160-45.87,160Z"/><path class="cls-17" d="M554.64,377.47,524.29,233.81s1.6-6.4-8.54-10.14-16-4.26-16-4.26,1.78-10.66-9.24-13.87-43.56-13.33-43.56-13.33l-4.8,3.2v3.73l-63.46-19.73-6.22,2.31,37.15,135.82,141.87,70.94Z"/><path class="cls-18" d="M551.49,388.48,519.48,237s1.6-6.41-8.53-10.14-16-4.26-16-4.26,1.78-10.67-9.24-13.87-43.55-13.33-43.55-13.33l-4.8,6.93-63.46-19.73s-3.2-5.34,0,10.13,30.94,128,30.94,128Z"/></g><g id="Cup"><path class="cls-19" d="M879,486.84A84.46,84.46,0,1,0,904.1,611.39a11.71,11.71,0,0,0,1.68,1.2L927.4,625a11.81,11.81,0,1,0,11.73-20.5l-21.61-12.37a11.7,11.7,0,0,0-2-.9A84.4,84.4,0,0,0,879,486.84Z"/><circle class="cls-20" cx="837.07" cy="560.14" r="69.77" transform="translate(-64.92 1008.32) rotate(-60.21)"/><path class="cls-21" d="M856.53,526.15a39.17,39.17,0,1,1-53.45,14.54A39.17,39.17,0,0,1,856.53,526.15Z"/><path class="cls-9" d="M784.57,514.18a69.79,69.79,0,0,0,17.84,106.51A69.63,69.63,0,0,0,819,627.47C805.19,604.91,785.59,564.3,784.57,514.18Z"/></g><g id="Calculator"><g id="Body"><path class="cls-22" d="M891.86,304.22A10.79,10.79,0,0,1,881.08,315H757a10.79,10.79,0,0,1-10.79-10.79V149.56A10.79,10.79,0,0,1,757,138.77H881.08a10.79,10.79,0,0,1,10.79,10.79Z"/><path class="cls-23" d="M881.08,138.77H757a10.79,10.79,0,0,0-10.79,10.79v36H891.86v-36A10.79,10.79,0,0,0,881.08,138.77Z"/></g><g id="Button"><rect class="cls-24" x="758.49" y="152.56" width="121.09" height="23.68"/><path class="cls-24" d="M779.47,198.23a4.83,4.83,0,0,1-4.83,4.83H767a4.83,4.83,0,0,1-4.83-4.83h0A4.83,4.83,0,0,1,767,193.4h7.64a4.83,4.83,0,0,1,4.83,4.83Z"/><path class="cls-24" d="M801.5,198.57a4.83,4.83,0,0,1-4.83,4.83H789a4.83,4.83,0,0,1-4.83-4.83h0a4.83,4.83,0,0,1,4.83-4.84h7.64a4.83,4.83,0,0,1,4.83,4.84Z"/><path class="cls-24" d="M824.09,198.57a4.83,4.83,0,0,1-4.83,4.83h-7.64a4.83,4.83,0,0,1-4.83-4.83h0a4.83,4.83,0,0,1,4.83-4.84h7.64a4.83,4.83,0,0,1,4.83,4.84Z"/><path class="cls-25" d="M861.43,224.79a7.92,7.92,0,0,1-7.92,7.92H841a7.92,7.92,0,0,1-7.92-7.92h0a7.91,7.91,0,0,1,7.92-7.92H853.5a7.92,7.92,0,0,1,7.92,7.92Z"/><path class="cls-25" d="M861.43,249.88a7.92,7.92,0,0,1-7.92,7.92H841a7.92,7.92,0,0,1-7.92-7.92h0A7.91,7.91,0,0,1,841,242H853.5a7.92,7.92,0,0,1,7.92,7.92Z"/><path class="cls-25" d="M861.43,274.37a7.92,7.92,0,0,1-7.92,7.92H841a7.92,7.92,0,0,1-7.92-7.92h0a7.92,7.92,0,0,1,7.92-7.92H853.5a7.92,7.92,0,0,1,7.92,7.92Z"/><path class="cls-25" d="M861.43,298.87a7.92,7.92,0,0,1-7.92,7.92H841a7.92,7.92,0,0,1-7.92-7.92h0A7.92,7.92,0,0,1,841,291H853.5a7.92,7.92,0,0,1,7.92,7.92Z"/><path class="cls-24" d="M846.34,198.23a4.83,4.83,0,0,1-4.83,4.83h-7.64a4.83,4.83,0,0,1-4.83-4.83h0a4.83,4.83,0,0,1,4.83-4.83h7.64a4.83,4.83,0,0,1,4.83,4.83Z"/><path class="cls-24" d="M882.53,224.79a4.83,4.83,0,0,1-4.83,4.83h-7.64a4.83,4.83,0,0,1-4.83-4.83h0a4.83,4.83,0,0,1,4.83-4.83h7.64a4.83,4.83,0,0,1,4.83,4.83Z"/><path class="cls-24" d="M881.77,250.27a4.83,4.83,0,0,1-4.83,4.84H869.3a4.83,4.83,0,0,1-4.83-4.84h0a4.83,4.83,0,0,1,4.83-4.83h7.64a4.83,4.83,0,0,1,4.83,4.83Z"/><path class="cls-24" d="M882.53,274.37a4.83,4.83,0,0,1-4.83,4.84h-7.64a4.83,4.83,0,0,1-4.83-4.84h0a4.83,4.83,0,0,1,4.83-4.83h7.64a4.83,4.83,0,0,1,4.83,4.83Z"/><path class="cls-26" d="M882.53,298.87a4.83,4.83,0,0,1-4.83,4.83h-7.64a4.83,4.83,0,0,1-4.83-4.83h0a4.83,4.83,0,0,1,4.83-4.83h7.64a4.83,4.83,0,0,1,4.83,4.83Z"/><path class="cls-27" d="M860.53,196a2.59,2.59,0,0,1-2.58,2.58h-4.09a2.58,2.58,0,0,1-2.58-2.58h0a2.58,2.58,0,0,1,2.58-2.58h4.09a2.58,2.58,0,0,1,2.58,2.58Z"/><path class="cls-28" d="M873.11,196a2.58,2.58,0,0,1-2.58,2.58h-4.09a2.59,2.59,0,0,1-2.58-2.58h0a2.58,2.58,0,0,1,2.58-2.58h4.09a2.58,2.58,0,0,1,2.58,2.58Z"/><path class="cls-29" d="M885.14,196a2.59,2.59,0,0,1-2.59,2.58h-4.08a2.59,2.59,0,0,1-2.58-2.58h0a2.58,2.58,0,0,1,2.58-2.58h4.08a2.58,2.58,0,0,1,2.59,2.58Z"/><circle class="cls-30" cx="767.48" cy="224.79" r="7.49"/><circle class="cls-30" cx="767.48" cy="250.27" r="7.49"/><path class="cls-30" d="M775,274.37a7.49,7.49,0,1,1-7.49-7.49A7.5,7.5,0,0,1,775,274.37Z"/><circle class="cls-30" cx="767.48" cy="299.26" r="7.49"/><circle class="cls-30" cx="791.94" cy="250.27" r="7.49"/><circle class="cls-30" cx="791.94" cy="274.38" r="7.49"/><circle class="cls-30" cx="791.94" cy="299.26" r="7.49"/><circle class="cls-30" cx="816.6" cy="249.88" r="7.49"/><circle class="cls-30" cx="816.6" cy="274" r="7.49"/><circle class="cls-30" cx="816.6" cy="298.87" r="7.49"/><circle class="cls-30" cx="791.94" cy="224.79" r="7.49"/><circle class="cls-30" cx="816.6" cy="224.79" r="7.49"/><path class="cls-31" d="M879.9,138.77H819V315H879.9c6.61,0,12-4.83,12-10.79V149.56C891.86,143.6,886.51,138.77,879.9,138.77Z"/></g></g><g id="Glass"><path class="cls-32" d="M433,23.52s-59.3,12.85-64.34,32.19,5.92,17.15,13.58,6.94S422,36.54,433,33.89,433,23.52,433,23.52Z"/><path class="cls-32" d="M474.1,23.52s59.3,12.85,64.34,32.19-5.92,17.15-13.58,6.94S485,36.54,474.1,33.89,474.1,23.52,474.1,23.52Z"/><path class="cls-32" d="M592.42,33.89A10.38,10.38,0,0,1,582,44.27H327.57a10.38,10.38,0,0,1-10.38-10.38h0a10.38,10.38,0,0,1,10.38-10.38H582a10.38,10.38,0,0,1,10.38,10.38Z"/><path class="cls-33" d="M400.09,84.17H347.53c-37.23-5.48-25.19-58-25.19-58C344.79-5.61,404.6.71,427.05,23.7,427.05,23.7,429.65,82,400.09,84.17Z"/><path class="cls-32" d="M432.89,21.45C408.14-3.91,342.46-11,317.19,23.52a7.37,7.37,0,0,0-12.9,4.87v9.88A7.37,7.37,0,0,0,314.64,45c.1,17.39,5.19,39.9,30,43.55H403C435.78,86.12,432.89,21.45,432.89,21.45Zm-32.8,62.73H347.53c-37.23-5.48-25.19-58-25.19-58C344.79-5.61,404.6.71,427.05,23.7,427.05,23.7,429.65,82,400.09,84.17Z"/><path class="cls-33" d="M502.12,84.54h52.55c37.23-5.48,25.18-58,25.18-58-22.45-31.75-82.25-25.44-104.7-2.44C475.16,24.07,472.55,82.35,502.12,84.54Z"/><path class="cls-32" d="M499.23,88.92h58.32c24.82-3.65,29.91-26.16,30-43.55a7.37,7.37,0,0,0,10.36-6.74V28.75A7.37,7.37,0,0,0,585,23.88c-25.27-34.49-91-27.43-115.7-2.07C469.31,21.81,466.43,86.48,499.23,88.92ZM475.16,24.07c22.45-23,82.25-29.31,104.7,2.44,0,0,12,52.55-25.18,58H502.12C472.55,82.35,475.16,24.07,475.16,24.07Z"/><path class="cls-34" d="M315.09,36.2a4.31,4.31,0,0,1-4.31,4.31h0a4.31,4.31,0,0,1-4.31-4.31V30.73a4.31,4.31,0,0,1,4.31-4.31h0a4.31,4.31,0,0,1,4.31,4.31Z"/><path class="cls-34" d="M594.62,36.2a4.32,4.32,0,0,1-4.32,4.31h0A4.31,4.31,0,0,1,586,36.2V30.73a4.31,4.31,0,0,1,4.31-4.31h0a4.31,4.31,0,0,1,4.32,4.31Z"/><path class="cls-35" d="M439,31.62s12-8.76,23.54,0V39.1H439Z"/></g><g id="Phone"><path class="cls-36" d="M105.18,487.1a1.67,1.67,0,0,1-1.67,1.67h0a1.68,1.68,0,0,1-1.67-1.67V476.3a1.68,1.68,0,0,1,1.67-1.67h0a1.67,1.67,0,0,1,1.67,1.67Z"/><path class="cls-36" d="M105.18,505.33a1.67,1.67,0,0,1-1.67,1.67h0a1.68,1.68,0,0,1-1.67-1.67V494.54a1.68,1.68,0,0,1,1.67-1.67h0a1.67,1.67,0,0,1,1.67,1.67Z"/><path class="cls-36" d="M198.27,503.34a1.68,1.68,0,0,1-1.68,1.68h0a1.68,1.68,0,0,1-1.67-1.68V492.55a1.67,1.67,0,0,1,1.67-1.67h0a1.68,1.68,0,0,1,1.68,1.67Z"/><path class="cls-1" d="M196.7,608.7a8.93,8.93,0,0,1-8.93,8.93H112.86a8.93,8.93,0,0,1-8.93-8.93V472.77a8.93,8.93,0,0,1,8.93-8.93h74.91a8.93,8.93,0,0,1,8.93,8.93Z"/><rect class="cls-37" x="113.11" y="476.69" width="74.4" height="119.21"/><path class="cls-8" d="M163.86,606.22a7,7,0,0,1-7,6.95H143.51a6.94,6.94,0,0,1-6.95-6.95h0a6.94,6.94,0,0,1,6.95-6.94H156.9a6.94,6.94,0,0,1,7,6.94Z"/><path class="cls-38" d="M153.06,469.67a1.12,1.12,0,0,1-1.12,1.12H136a1.12,1.12,0,0,1-1.12-1.12h0a1.12,1.12,0,0,1,1.12-1.12h15.9a1.12,1.12,0,0,1,1.12,1.12Z"/><path class="cls-38" d="M158.36,469.67a1.12,1.12,0,0,1-1.12,1.12h-1a1.11,1.11,0,0,1-1.12-1.12h0a1.11,1.11,0,0,1,1.12-1.12h1a1.12,1.12,0,0,1,1.12,1.12Z"/><path class="cls-3" d="M154.17,518.29l5,5-16.46,16.43-5-5c-2.89,3.34-3.76,7.3-1.87,9.18l1.23,1.24c2,2,6.52.87,10-2.62L162,527.68c3.49-3.48,4.66-8,2.63-10l-1.24-1.23C161.47,514.56,157.51,515.41,154.17,518.29Z"/><path class="cls-39" d="M132.91,555.64a7.52,7.52,0,0,1,1.42-.12A2.46,2.46,0,0,1,136,556a1.25,1.25,0,0,1,.5,1.06,1.43,1.43,0,0,1-1,1.32h0a1.56,1.56,0,0,1,1.24,1.51,1.63,1.63,0,0,1-.51,1.2,3,3,0,0,1-2.08.57,8.23,8.23,0,0,1-1.2-.08Zm.77,2.46h.7c.83,0,1.31-.43,1.31-1s-.54-1-1.33-1a3.24,3.24,0,0,0-.68.06Zm0,2.88a4.21,4.21,0,0,0,.65,0c.8,0,1.54-.29,1.54-1.17s-.7-1.16-1.55-1.16h-.64Z"/><path class="cls-39" d="M141.33,560.39c0,.45,0,.84,0,1.18h-.7l0-.7h0a1.61,1.61,0,0,1-1.43.8c-.68,0-1.49-.37-1.49-1.89v-2.53h.79v2.39c0,.83.25,1.37,1,1.37a1.14,1.14,0,0,0,1-.71,1,1,0,0,0,.08-.4v-2.65h.78Z"/><path class="cls-39" d="M142.53,560.77a2.09,2.09,0,0,0,1,.31c.57,0,.84-.29.84-.64s-.22-.58-.81-.79c-.77-.27-1.14-.7-1.14-1.22a1.33,1.33,0,0,1,1.49-1.27,2.17,2.17,0,0,1,1.07.27l-.2.57a1.64,1.64,0,0,0-.88-.25c-.47,0-.73.27-.73.59s.26.51.82.73c.75.29,1.13.66,1.13,1.3s-.59,1.3-1.62,1.3a2.48,2.48,0,0,1-1.21-.29Z"/><path class="cls-39" d="M147,556a.46.46,0,0,1-.5.48.47.47,0,0,1-.47-.48.48.48,0,0,1,.49-.49A.46.46,0,0,1,147,556Zm-.87,5.53v-4.32H147v4.32Z"/><path class="cls-39" d="M148.26,558.42c0-.45,0-.81,0-1.17h.69l0,.72h0a1.58,1.58,0,0,1,1.43-.81c.6,0,1.53.36,1.53,1.84v2.58h-.79v-2.49c0-.7-.26-1.28-1-1.28a1.11,1.11,0,0,0-1.05.8,1.07,1.07,0,0,0-.05.36v2.6h-.79Z"/><path class="cls-39" d="M153.22,558.42c0-.45,0-.81,0-1.17h.7l0,.72h0a1.59,1.59,0,0,1,1.43-.81c.6,0,1.53.36,1.53,1.84v2.58h-.79v-2.49c0-.7-.26-1.28-1-1.28a1.12,1.12,0,0,0-1.05.8,1.27,1.27,0,0,0-.06.36v2.6h-.78Z"/><path class="cls-39" d="M158.61,559.56a1.39,1.39,0,0,0,1.48,1.5,2.9,2.9,0,0,0,1.2-.22l.13.56a3.49,3.49,0,0,1-1.43.27,2,2,0,0,1-2.12-2.17,2.09,2.09,0,0,1,2-2.33,1.83,1.83,0,0,1,1.79,2,2.32,2.32,0,0,1,0,.37Zm2.3-.57a1.12,1.12,0,0,0-1.09-1.28,1.31,1.31,0,0,0-1.21,1.28Z"/><path class="cls-39" d="M162.54,560.77a2.06,2.06,0,0,0,1,.31c.57,0,.84-.29.84-.64s-.22-.58-.81-.79c-.77-.27-1.14-.7-1.14-1.22a1.33,1.33,0,0,1,1.49-1.27,2.15,2.15,0,0,1,1.06.27l-.2.57a1.65,1.65,0,0,0-.89-.25c-.46,0-.72.27-.72.59s.26.51.82.73c.75.29,1.13.66,1.13,1.3s-.59,1.3-1.61,1.3a2.48,2.48,0,0,1-1.21-.29Z"/><path class="cls-39" d="M133.68,566.27v6h-.77v-6Z"/><path class="cls-39" d="M135.1,569.14c0-.45,0-.81,0-1.17h.69l.05.72h0a1.58,1.58,0,0,1,1.43-.81c.59,0,1.52.36,1.52,1.84v2.58H138V569.8c0-.7-.26-1.28-1-1.28a1.11,1.11,0,0,0-1.05.8,1,1,0,0,0-.05.37v2.6h-.79Z"/><path class="cls-39" d="M143.14,572.13a3,3,0,0,1-1.25.25,2.05,2.05,0,0,1-2.15-2.21,2.2,2.2,0,0,1,2.32-2.29,2.55,2.55,0,0,1,1.09.23l-.18.61a1.73,1.73,0,0,0-.91-.21,1.5,1.5,0,0,0-1.53,1.63,1.48,1.48,0,0,0,1.5,1.61,2.25,2.25,0,0,0,1-.21Z"/><path class="cls-39" d="M147.91,570.09a2.11,2.11,0,0,1-2.16,2.29,2.05,2.05,0,0,1-2.07-2.22,2.11,2.11,0,0,1,2.15-2.29A2,2,0,0,1,147.91,570.09Zm-3.43,0c0,.94.55,1.66,1.32,1.66s1.32-.7,1.32-1.68c0-.73-.37-1.66-1.3-1.66S144.48,569.32,144.48,570.14Z"/><path class="cls-39" d="M148.91,569.14c0-.45,0-.81,0-1.17h.69l0,.7h0a1.49,1.49,0,0,1,1.36-.79,1.29,1.29,0,0,1,1.22.87h0a1.84,1.84,0,0,1,.48-.57,1.49,1.49,0,0,1,1-.3c.57,0,1.42.37,1.42,1.88v2.54h-.77v-2.44c0-.83-.31-1.33-.94-1.33a1,1,0,0,0-.93.71,1.47,1.47,0,0,0-.06.4v2.66h-.77V569.7c0-.69-.31-1.18-.9-1.18a1.07,1.07,0,0,0-1,.78,1.09,1.09,0,0,0-.06.38v2.6h-.77Z"/><path class="cls-39" d="M157.23,566.76a.49.49,0,0,1-1,0,.48.48,0,0,1,.49-.5A.47.47,0,0,1,157.23,566.76Zm-.87,5.53V568h.78v4.32Z"/><path class="cls-39" d="M158.44,569.14c0-.45,0-.81,0-1.17h.7l0,.72h0a1.56,1.56,0,0,1,1.42-.81c.6,0,1.53.36,1.53,1.84v2.58h-.79V569.8c0-.7-.25-1.28-1-1.28a1.11,1.11,0,0,0-1,.8,1,1,0,0,0-.06.37v2.6h-.79Z"/><path class="cls-39" d="M167.12,568c0,.31,0,.66,0,1.18v2.51a2.46,2.46,0,0,1-.62,2,2.26,2.26,0,0,1-1.57.52,2.72,2.72,0,0,1-1.43-.36l.2-.6a2.37,2.37,0,0,0,1.26.34c.81,0,1.39-.42,1.39-1.5v-.48h0a1.55,1.55,0,0,1-1.37.72,1.93,1.93,0,0,1-1.84-2.11,2.07,2.07,0,0,1,1.94-2.29,1.44,1.44,0,0,1,1.35.75h0l0-.65Zm-.82,1.71a1.21,1.21,0,0,0,0-.36,1.14,1.14,0,0,0-1.1-.83c-.75,0-1.28.64-1.28,1.63,0,.85.43,1.56,1.28,1.56a1.15,1.15,0,0,0,1.09-.81,1.28,1.28,0,0,0,.06-.42Z"/><path class="cls-39" d="M137.1,582.81a3.79,3.79,0,0,1-1.58.29,2.82,2.82,0,0,1-3-3,3,3,0,0,1,3.15-3.16,3.26,3.26,0,0,1,1.42.27l-.18.64a2.81,2.81,0,0,0-1.21-.25,2.24,2.24,0,0,0-2.35,2.48,2.19,2.19,0,0,0,2.31,2.42,3.06,3.06,0,0,0,1.27-.25Z"/><path class="cls-39" d="M139.09,581.11l-.62,1.89h-.81l2.05-6h.93l2.06,6h-.83l-.64-1.89Zm2-.61-.59-1.73c-.13-.4-.22-.75-.31-1.1h0c-.09.36-.19.72-.31,1.09l-.59,1.75Z"/><path class="cls-39" d="M143.58,577h.78v5.36h2.57V583h-3.35Z"/><path class="cls-39" d="M147.8,577h.78v5.36h2.57V583H147.8Z"/><path class="cls-39" d="M153.69,582.54a.53.53,0,1,1,.53.56A.52.52,0,0,1,153.69,582.54Z"/><path class="cls-39" d="M155.54,582.54a.53.53,0,0,1,.54-.56.56.56,0,0,1,0,1.12A.53.53,0,0,1,155.54,582.54Z"/><path class="cls-39" d="M157.38,582.54a.53.53,0,0,1,.54-.56.56.56,0,0,1,0,1.12A.53.53,0,0,1,157.38,582.54Z"/></g></g></g></g></g></svg>