<?xml version="1.0" encoding="utf-8"?>
<!-- Generator: Adobe Illustrator 21.0.0, SVG Export Plug-In . SVG Version: 6.00 Build 0)  -->
<svg version="1.1" id="Layer_1" xmlns="http://www.w3.org/2000/svg" xmlns:xlink="http://www.w3.org/1999/xlink" x="0px" y="0px"
	 viewBox="0 0 1366 768" style="enable-background:new 0 0 1366 768;" xml:space="preserve">
<style type="text/css">
	.st0{fill:#FFFFFF;}
	.st1{fill:#81D4FA;}
	.st2{fill:#2575EA;}
	.st3{fill:#F8BBD0;}
</style>
<g>
	<rect class="st0" width="1366" height="768"/>
</g>
<path class="st1" d="M65,126"/>
<path class="st1" d="M73,531"/>
<path class="st1" d="M120,278"/>
<path class="st2" d="M200,23"/>
<path class="st3" d="M1284.3,0c-136.2-2.5-226.4,32.9-286.5,70.6c-59.3,37.2-59.3,57.9-109.5,76.5c-106.5,39.4-172.4-29.3-300-16.5
	c-45.4,4.5-109.6,20.5-184.1,73.6c-175-1.8-226.8,23.1-234.4,50.9c-10.8,39.5,70.6,75.3,67.5,148.5c-2.8,64.9-69,89.4-61.5,126
	c6.1,29.8,59.3,59.3,244.5,69c24,7,60.2,14.1,102,7.5c65.3-10.3,69.2-42.2,123-43.5c71.4-1.8,135.8,52.5,144.4,60
	c7.5,6.4,7,6.8,11.6,10.5c43.6,34.9,114.9,21.1,183.1-5.6c24.4-23.9,64.6-55.4,113.8-54.3c63.4,1.5,92.8,56.1,145.6,49.4
	c23.4-3,57.9-18.9,94.5-87c10.2-18.3,19.6-37.8,28.1-58.5c75.7-184.3,35.7-369,0-477.1L1284.3,0z"/>
</svg>
