<?xml version="1.0" encoding="utf-8"?>
<!-- Generator: Adobe Illustrator 21.0.0, SVG Export Plug-In . SVG Version: 6.00 Build 0)  -->
<svg version="1.1" id="Layer_1" xmlns="http://www.w3.org/2000/svg" xmlns:xlink="http://www.w3.org/1999/xlink" x="0px" y="0px"
	 viewBox="0 0 1366 768" style="enable-background:new 0 0 1366 768;" xml:space="preserve">
<style type="text/css">
	.st0{fill:#FFFFFF;}
	.st1{fill:#2575EA;}
</style>
<g>
	<rect class="st0" width="1366" height="768"/>
</g>
<path class="st1" d="M0,8c14.2-3.8,64.7-2.1,96.6,29c16,15.6,19.4,30.8,27.4,46c15,28.5,49,62.1,133,82c14.4,2.2,35.7,9.7,60.9,21.3
	c30.6,14,61.6,34.8,63.1,61.8c3,54,63,60-42,135c-21.3,15.2-34.1,29.9-42.5,43.8c-19,31.5-14,48.6-32.7,76.1
	c-8.9,13.1-22.8,27.7-45.8,40c-15.1,6.6-38.5,19.1-60.9,41.9c-26.7,27-39.3,55.6-45.1,72.1c-11.5,14.2-29.2,32.9-54.4,49.9
	C36.1,721.4,15.8,730.3,0,735.8C-68.8,166.5-43.4,19.6,0,8z"/>
<path class="st1" d="M-80,504"/>
</svg>
