<svg xmlns="http://www.w3.org/2000/svg" viewBox="0 0 55.05 177.42"><defs><style>.cls-1{fill:#393762;}.cls-2{fill:#49478a;}.cls-3{fill:#ece0d3;}.cls-4{fill:#444;}.cls-5{fill:#3f3f3f;}.cls-6{fill:#e48868;}.cls-7{fill:#ba745d;}.cls-8{fill:#464473;}</style></defs><title>Asset 1</title><g id="Layer_2" data-name="Layer 2"><g id="Layer_1-2" data-name="Layer 1"><path class="cls-1" d="M24,114.17l3.82-18.5,2.42,0,1.63,18.45H46.82c.23-8.19.26-23.7,0-31.33l-35.38-.95c-.36,6.1-.55,22.94-1.19,32.28Z"/><path class="cls-1" d="M10.23,114.17c-1.41,26.11-2.73,59.35-2.73,59.35l-5.27,3.9h8.22L24,114.17,16.4,113Z"/><path class="cls-1" d="M46.82,114.17l-11-6.06-3.9,6.06,6.54,63.25h8.22L42,173.87A582.84,582.84,0,0,0,46.82,114.17Z"/><path class="cls-2" d="M29.19,93.49a.3.3,0,0,1-.29-.22l-2.05-7.67a.3.3,0,0,1,.59-.16l2.05,7.67a.3.3,0,0,1-.21.37Z"/><path class="cls-3" d="M7.65,38.89c-2.41,2.83-7,15.21-7,17.36S-1.63,78.68,2.22,79.07s6.66-4.94,6.66-4.94Z"/><path class="cls-4" d="M47.42,40.68,45,84.54,11.42,81.89,6.91,84.77C5.06,74,3.74,61.28,5.5,50.17c.56-3.53,2.28-12,3-15.49.38-1.91,15.83-10.16,18.64-10s4.1-.23,8.45.77c4.91,1.12,13.52,5.9,15.34,8.11s4.66,31.6,4,34.4c-1.51,6.85-5.33,18.92-5.33,18.92L45,84.54"/><path class="cls-5" d="M17.78,71.77a.3.3,0,0,1-.14-.57,47.2,47.2,0,0,0,15-12.74A.31.31,0,0,1,33,58.4a.3.3,0,0,1,.06.43,47.83,47.83,0,0,1-15.18,12.9A.31.31,0,0,1,17.78,71.77Z"/><path class="cls-5" d="M28,75.72a.31.31,0,0,1-.19-.06.3.3,0,0,1-.05-.43c3.91-5,6.7-9.25,8.55-14.8a.3.3,0,0,1,.58.19c-1.87,5.64-4.7,9.91-8.64,15A.3.3,0,0,1,28,75.72Z"/><path class="cls-5" d="M12.4,79.37h0a.3.3,0,0,1-.28-.32c.4-5.41.89-10.58,1.36-15.58.35-3.75.72-7.62,1.05-11.64C14.91,47,15,37.77,12.73,34a.3.3,0,1,1,.52-.31c2.35,4,2.28,13.32,1.87,18.24-.34,4-.7,7.89-1.05,11.64-.47,5-1,10.17-1.36,15.57A.3.3,0,0,1,12.4,79.37Z"/><path class="cls-6" d="M24.61,18.24v7.08s5.72,6.06,11,.14l-.46-7.22Z"/><path class="cls-6" d="M38.6,13.28a2,2,0,0,0-.58-.17c.81-5.16.46-11.57-8-11.32-5,.15-6.54,4.77-6.86,9.61a1.48,1.48,0,0,0-1.14,0c-1.74.52-.53,4.91,1.27,5.59.67,4.42,3,7.25,6.35,7.5,3.09.23,5.51-2.17,7-5.79C38.49,18.24,40.27,14,38.6,13.28Z"/><path class="cls-7" d="M30,24.77l-.43,0a6.27,6.27,0,0,1-4.47-2.39.3.3,0,1,1,.47-.38,5.68,5.68,0,0,0,4,2.17,5.39,5.39,0,0,0,4.48-2,.3.3,0,1,1,.45.41A6.12,6.12,0,0,1,30,24.77Z"/><path class="cls-6" d="M6.91,84.77s4.6,9,6.19,4.88-1.69-7.76-1.69-7.76h0Z"/><path class="cls-8" d="M23.17,11.4l1.07,1.72h1.14v-3A6,6,0,0,0,27,7l8.61.61s-.27,2.12.41,3V14h1.06l1-.92s2.09-7.57,1.24-9.46a2,2,0,0,0-2.59-1.21S33.84-.9,29.88.24,22.73,3.8,22.12,5.47,23.17,11.4,23.17,11.4Z"/><path class="cls-6" d="M45,84.54s-4.5,5-2.27,8.14,6.9-5.78,6.9-5.78A37.44,37.44,0,0,0,45,84.54Z"/><path class="cls-5" d="M45.07,83.94a.3.3,0,0,1-.09-.59s.72-.27.91-1.56A4.3,4.3,0,0,0,45.3,80c-.84-1.8-2.1-4.51.44-6.92,2-1.94,1.47-4.37,1-6.52-.3-1.28-.57-2.38-.19-3.17.53-1.09.59-11.19.64-18.57,0-6,.07-9.66.23-10.38a.3.3,0,1,1,.59.13c-.15.69-.18,5.33-.22,10.25-.07,10-.16,17.7-.7,18.82a4.94,4.94,0,0,0,.23,2.77c.52,2.19,1.17,4.92-1.13,7.1S45,78,45.85,79.79a4.27,4.27,0,0,1,.64,2.09c-.25,1.69-1.28,2-1.33,2Z"/><path class="cls-2" d="M14.87,92.7a.3.3,0,0,1-.24-.49,5.46,5.46,0,0,0-.92-7.77.3.3,0,0,1,.37-.48,6.07,6.07,0,0,1,1,8.63A.3.3,0,0,1,14.87,92.7Z"/><path class="cls-2" d="M40.62,97.13a.3.3,0,0,1-.07-.6,8.09,8.09,0,0,0,4.1-2.35.3.3,0,0,1,.44.41,8.71,8.71,0,0,1-4.41,2.53Z"/><path class="cls-3" d="M13.91,30.58C15.45,33.44,15,45.46,15,45.46v4.87s6.46-12.39,4.7-22.88Z"/></g></g></svg>