<svg xmlns="http://www.w3.org/2000/svg" viewBox="0 0 177.23 177.42"><defs><style>.cls-1{fill:#dbf3fc;}.cls-2{fill:#393762;}.cls-3{fill:#49478a;}.cls-4{fill:#ece0d3;}.cls-5{fill:#444;}.cls-6{fill:#3f3f3f;}.cls-7{fill:#e48868;}.cls-8{fill:#ba745d;}.cls-9{fill:#464473;}</style></defs><title>Asset 2</title><g id="Layer_2" data-name="Layer 2"><g id="Layer_1-2" data-name="Layer 1"><path class="cls-1" d="M70.09,56.27c-.12-2.08,21.4,1.82,47.18-10.15,7.09-3.29,14.58-7.82,19.3-5.06s1.7,10.48,7.93,15.23c4,3,6.46.8,14.23,3.53,8.6,3,17.32,9.89,16.61,15.92a6.43,6.43,0,0,1-2,4c-13,13.34,22.77,42.2-11.38,44.49s-3.45,40-38.32,30.8-65,33.89-76.34,6.41-28.46-23.89-19.52-37.2S-3.1,100.78,12.35,85.77-18.43,53.4,8.75,46.11C28.29,40.87,27.48,31.72,33,29.2c3.82-1.74,7.47-.08,11,.71,13.5,3,17.4-5.72,35.78-6.31,10.8-.35,8.69,2.68,25.62,3.53,5.46.27,11.43.25,14.64,3.9,1.25,1.43,1.51,2.76,4.47,6.5,2.26,2.85,3.07,3.28,3.25,4.46.59,3.77-6.44,7.62-8.13,8.54C103.27,59.52,70.24,58.85,70.09,56.27Z"/><path class="cls-2" d="M85.82,114.17l3.82-18.5,2.42,0,1.63,18.45h14.92c.23-8.19.26-23.7,0-31.33L73.2,81.89c-.36,6.1-.55,22.94-1.19,32.28Z"/><path class="cls-2" d="M72,114.17c-1.41,26.11-2.73,59.35-2.73,59.35L64,177.42h8.22l13.59-63.25L78.18,113Z"/><path class="cls-2" d="M108.61,114.17l-11-6.06-3.9,6.06,6.54,63.25h8.22l-4.68-3.56A582.84,582.84,0,0,0,108.61,114.17Z"/><path class="cls-3" d="M91,93.49a.3.3,0,0,1-.29-.22l-2.05-7.67a.3.3,0,0,1,.59-.16l2.05,7.67a.3.3,0,0,1-.21.37Z"/><path class="cls-4" d="M69.43,38.89c-2.41,2.83-7,15.21-7,17.36S60.15,78.68,64,79.07s6.66-4.94,6.66-4.94Z"/><path class="cls-5" d="M109.2,40.68l-2.43,43.86L73.2,81.89l-4.51,2.88C66.84,74,65.52,61.28,67.28,50.17c.56-3.53,2.28-12,3-15.49.38-1.91,15.83-10.16,18.64-10s4.1-.23,8.45.77c4.91,1.12,13.52,5.9,15.34,8.11s4.66,31.6,4,34.4c-1.51,6.85-5.33,18.92-5.33,18.92l-4.63-2.35"/><path class="cls-6" d="M79.56,71.77a.3.3,0,0,1-.14-.57,47.2,47.2,0,0,0,15-12.74.31.31,0,0,1,.43-.06.3.3,0,0,1,.06.43A47.83,47.83,0,0,1,79.7,71.73.31.31,0,0,1,79.56,71.77Z"/><path class="cls-6" d="M89.76,75.72a.31.31,0,0,1-.19-.06.3.3,0,0,1-.05-.43c3.91-5,6.7-9.25,8.55-14.8a.3.3,0,0,1,.58.19c-1.87,5.64-4.7,9.91-8.64,15A.3.3,0,0,1,89.76,75.72Z"/><path class="cls-6" d="M74.18,79.37h0a.3.3,0,0,1-.28-.32c.4-5.41.89-10.58,1.36-15.58.35-3.75.72-7.62,1.05-11.64.4-4.84.48-14.05-1.78-17.88a.3.3,0,1,1,.52-.31c2.35,4,2.28,13.32,1.87,18.24-.34,4-.7,7.89-1.05,11.64-.47,5-1,10.17-1.36,15.57A.3.3,0,0,1,74.18,79.37Z"/><path class="cls-7" d="M86.39,18.24v7.08s5.72,6.06,11,.14l-.46-7.22Z"/><path class="cls-7" d="M100.38,13.28a2,2,0,0,0-.58-.17c.81-5.16.46-11.57-8-11.32-5,.15-6.54,4.77-6.86,9.61a1.48,1.48,0,0,0-1.14,0c-1.74.52-.53,4.91,1.27,5.59.67,4.42,3,7.25,6.35,7.5,3.09.23,5.51-2.17,7-5.79C100.27,18.24,102,14,100.38,13.28Z"/><path class="cls-8" d="M91.83,24.77l-.43,0a6.27,6.27,0,0,1-4.47-2.39A.3.3,0,1,1,87.4,22a5.68,5.68,0,0,0,4,2.17,5.39,5.39,0,0,0,4.48-2,.3.3,0,1,1,.45.41A6.12,6.12,0,0,1,91.83,24.77Z"/><path class="cls-7" d="M68.69,84.77s4.6,9,6.19,4.88-1.69-7.76-1.69-7.76h0Z"/><path class="cls-9" d="M85,11.4,86,13.12h1.14v-3A6,6,0,0,0,88.75,7l8.61.61s-.27,2.12.41,3V14h1.06l1-.92s2.09-7.57,1.24-9.46a2,2,0,0,0-2.59-1.21S95.62-.9,91.66.24,84.51,3.8,83.9,5.47,85,11.4,85,11.4Z"/><path class="cls-7" d="M106.78,84.54s-4.5,5-2.27,8.14,6.9-5.78,6.9-5.78A37.44,37.44,0,0,0,106.78,84.54Z"/><path class="cls-6" d="M106.85,83.94a.3.3,0,0,1-.09-.59s.72-.27.91-1.56a4.3,4.3,0,0,0-.58-1.74c-.84-1.8-2.1-4.51.44-6.92,2-1.94,1.47-4.37,1-6.52-.3-1.28-.57-2.38-.19-3.17.53-1.09.59-11.19.64-18.57,0-6,.07-9.66.23-10.38a.3.3,0,0,1,.59.13c-.15.69-.18,5.33-.22,10.25-.07,10-.16,17.7-.7,18.82a4.94,4.94,0,0,0,.23,2.77c.52,2.19,1.17,4.92-1.13,7.1s-1.16,4.39-.31,6.23a4.27,4.27,0,0,1,.64,2.09c-.25,1.69-1.28,2-1.33,2Z"/><path class="cls-3" d="M76.66,92.7a.3.3,0,0,1-.24-.49,5.46,5.46,0,0,0-.92-7.77.3.3,0,0,1,.37-.48,6.07,6.07,0,0,1,1,8.63A.3.3,0,0,1,76.66,92.7Z"/><path class="cls-3" d="M102.4,97.13a.3.3,0,0,1-.07-.6,8.09,8.09,0,0,0,4.1-2.35.3.3,0,0,1,.44.41,8.71,8.71,0,0,1-4.41,2.53Z"/><path class="cls-4" d="M75.69,30.58c1.54,2.85,1.13,14.88,1.13,14.88v4.87s6.46-12.39,4.7-22.88Z"/></g></g></svg>