<svg xmlns="http://www.w3.org/2000/svg" viewBox="0 0 340.51 280.1"><defs><style>.cls-1{fill:#dbf3fc;}.cls-2{fill:#3f3f3f;}.cls-3{fill:#2d2d2d;}.cls-4{fill:#efefef;}.cls-5{fill:#333;}.cls-6{fill:#ccc729;}.cls-7{fill:#c63e75;}.cls-8{fill:#c9613d;}.cls-9{fill:#9e9e9e;}.cls-10{fill:#fff;}.cls-11{fill:#cecece;}.cls-12{fill:#878787;}.cls-13{fill:#393762;}.cls-14{fill:#49478a;}.cls-15{fill:#ece0d3;}.cls-16{fill:#444;}.cls-17{fill:#e48868;}.cls-18{fill:#ba745d;}.cls-19{fill:#464473;}</style></defs><title>Asset 5</title><g id="Layer_2" data-name="Layer 2"><g id="Layer_1-2" data-name="Layer 1"><path class="cls-1" d="M34.24,85.2A84.72,84.72,0,0,1,45,55.19C57.79,33.72,76.74,24.27,84.82,20.83a44.21,44.21,0,0,0,19.71-3.27c6.37-2.72,8.19-5.46,12.58-8,9.4-5.51,18.09-3,36.36-1.11,16.41,1.67,27.27,2.77,39.53,1.42C218.62,7,224.91-3.72,234.51,1.34,248,8.47,239.7,31.94,254,41.64c15.67,10.62,38.25-9.62,48.44.84,8.83,9.07-4.47,24,4.68,41.78,9.58,18.62,32.08,18.16,33.33,28.6C342,126,306,126.34,292.66,150.59c-18.42,33.59,24,81.87,9,96.25C289,259,258.89,224.52,220.12,232.28c-40.12,8-53.33,54-71.23,47.13-15.82-6.07-8.9-43.46-28.72-52.63-18.68-8.63-40.69,17.17-52.62,7.78-10-7.85,1.81-28.72-10.25-40.36-9.18-8.86-20.13-.77-34.12-8.89C8.42,176.75-3.26,156.44.82,141.75c4.2-15.14,24.79-13,32.49-31.15C37.3,101.21,35.85,91.48,34.24,85.2Z"/><path class="cls-2" d="M256.07,97.1"/><rect class="cls-3" x="200.39" y="170.36" width="33" height="22.98" rx="0.96" ry="0.96" transform="translate(206.11 -100.98) rotate(47.84)"/><rect class="cls-4" x="200.85" y="170.72" width="32.16" height="22.06" rx="0.94" ry="0.94" transform="translate(206.05 -101.05) rotate(47.84)"/><rect class="cls-5" x="113.03" y="51.44" width="110.56" height="83.13" rx="2.24" ry="2.24" transform="translate(-0.43 0.78) rotate(-0.26)"/><ellipse class="cls-6" cx="116.78" cy="56.72" rx="1.92" ry="2" transform="translate(-0.26 0.54) rotate(-0.26)"/><ellipse class="cls-7" cx="121.81" cy="56.7" rx="1.92" ry="2" transform="translate(-0.26 0.56) rotate(-0.26)"/><ellipse class="cls-8" cx="126.92" cy="56.68" rx="1.92" ry="2" transform="translate(-0.26 0.59) rotate(-0.26)"/><rect class="cls-9" x="120.82" y="65.32" width="21.73" height="2.6" transform="translate(-0.31 0.61) rotate(-0.26)"/><rect class="cls-9" x="120.86" y="74.7" width="21.73" height="1.78" transform="translate(-0.35 0.61) rotate(-0.26)"/><rect class="cls-9" x="120.89" y="80.77" width="17.27" height="1.78" transform="translate(-0.37 0.6) rotate(-0.26)"/><rect class="cls-9" x="120.92" y="86.44" width="23.92" height="1.78" transform="translate(-0.4 0.61) rotate(-0.26)"/><rect class="cls-9" x="120.94" y="91.77" width="39.93" height="1.78" transform="translate(-0.43 0.65) rotate(-0.26)"/><rect class="cls-9" x="120.97" y="97.22" width="34.24" height="1.78" transform="translate(-0.45 0.64) rotate(-0.26)"/><rect class="cls-9" x="147.68" y="65.19" width="21.73" height="2.6" transform="translate(-0.3 0.73) rotate(-0.26)"/><rect class="cls-9" x="174.43" y="65.07" width="21.73" height="2.6" transform="matrix(1, 0, 0, 1, -0.3, 0.85)"/><rect class="cls-9" x="174.54" y="74.4" width="41.49" height="29.25" transform="translate(-0.41 0.9) rotate(-0.26)"/><ellipse class="cls-2" cx="129.27" cy="121.21" rx="9.08" ry="9.44" transform="translate(-0.56 0.6) rotate(-0.26)"/><ellipse class="cls-2" cx="208.2" cy="120.85" rx="9.08" ry="9.44" transform="translate(-0.55 0.96) rotate(-0.26)"/><ellipse class="cls-2" cx="169.66" cy="121.03" rx="9.08" ry="9.44" transform="translate(-0.56 0.78) rotate(-0.26)"/><path class="cls-10" d="M201.7,170.64h30.63a.77.77,0,0,1,.77.77v19.53a1.77,1.77,0,0,1-1.77,1.77H202.7a1.77,1.77,0,0,1-1.77-1.77V171.41a.77.77,0,0,1,.77-.77Z" transform="translate(206.02 -101.13) rotate(47.84)"/><ellipse class="cls-6" cx="214.27" cy="163.65" rx="0.55" ry="0.57" transform="translate(-54.51 184.85) rotate(-41.88)"/><ellipse class="cls-7" cx="215.32" cy="164.81" rx="0.55" ry="0.57" transform="translate(-55.02 185.85) rotate(-41.88)"/><ellipse class="cls-8" cx="216.33" cy="165.95" rx="0.55" ry="0.57" transform="translate(-55.52 186.82) rotate(-41.88)"/><rect class="cls-11" x="211.89" y="168.43" width="6.47" height="0.72" transform="translate(197.18 -104.06) rotate(48.12)"/><rect class="cls-11" x="210.03" y="170.2" width="6.47" height="0.49" transform="translate(197.8 -102.13) rotate(48.12)"/><rect class="cls-11" x="209" y="170.83" width="5.15" height="0.49" transform="translate(197.7 -100.66) rotate(48.12)"/><rect class="cls-11" x="207.5" y="172.62" width="7.13" height="0.49" transform="translate(198.86 -99.68) rotate(48.12)"/><rect class="cls-11" x="205.6" y="175.39" width="11.9" height="0.49" transform="translate(201.09 -99.12) rotate(48.12)"/><rect class="cls-11" x="204.75" y="175.77" width="10.2" height="0.49" transform="translate(200.81 -97.73) rotate(48.12)"/><rect class="cls-11" x="217.23" y="174.39" width="6.47" height="0.72" transform="translate(203.39 -106.06) rotate(48.12)"/><rect class="cls-11" x="222.55" y="180.32" width="6.47" height="0.72" transform="translate(209.58 -108.05) rotate(48.12)"/><rect class="cls-11" x="217.23" y="183.18" width="12.36" height="7.18" transform="translate(213.32 -104.25) rotate(48.12)"/><path class="cls-12" d="M225.94,176.75l-3.15-3.48.07-1.41h0l4.49,5h0Z"/><circle class="cls-11" cx="231.23" cy="186.74" r="0.92" transform="translate(-9.84 12.89) rotate(-3.13)"/><rect class="cls-3" x="103.9" y="168.55" width="33" height="22.98" rx="0.96" ry="0.96"/><rect class="cls-4" x="104.28" y="168.91" width="32.16" height="22.06" rx="0.94" ry="0.94"/><rect class="cls-3" x="117.01" y="191.53" width="6.69" height="1.88"/><path class="cls-3" d="M136.9,194.41c0,.55-7.3,1.1-16.31,1.1s-16.31-.54-16.31-1.1,7.3-1,16.31-1"/><path class="cls-10" d="M105,168.8h30.63a.77.77,0,0,1,.77.77V189.1a1.77,1.77,0,0,1-1.77,1.77H106a1.77,1.77,0,0,1-1.77-1.77V169.57a.77.77,0,0,1,.77-.77Z"/><ellipse class="cls-6" cx="105.15" cy="169.77" rx="0.55" ry="0.57" transform="translate(-65.13 274.09) rotate(-89.72)"/><ellipse class="cls-7" cx="106.72" cy="169.77" rx="0.55" ry="0.57" transform="translate(-63.57 275.65) rotate(-89.72)"/><ellipse class="cls-8" cx="108.24" cy="169.78" rx="0.55" ry="0.57" transform="translate(-62.07 277.19) rotate(-89.72)"/><rect class="cls-11" x="106.3" y="172.22" width="6.47" height="0.72" transform="translate(0.84 -0.53) rotate(0.28)"/><rect class="cls-11" x="106.28" y="174.82" width="6.47" height="0.49" transform="translate(0.86 -0.53) rotate(0.28)"/><rect class="cls-11" x="106.28" y="176.5" width="5.15" height="0.49" transform="translate(0.86 -0.53) rotate(0.28)"/><rect class="cls-11" x="106.27" y="178.08" width="7.13" height="0.49" transform="matrix(1, 0, 0, 1, 0.87, -0.53)"/><rect class="cls-11" x="106.26" y="179.58" width="11.9" height="0.49" transform="translate(0.88 -0.55) rotate(0.28)"/><rect class="cls-11" x="106.25" y="181.09" width="10.2" height="0.49" transform="translate(0.89 -0.54) rotate(0.28)"/><rect class="cls-11" x="114.3" y="172.26" width="6.47" height="0.72" transform="translate(0.84 -0.57) rotate(0.28)"/><rect class="cls-11" x="122.27" y="172.3" width="6.47" height="0.72" transform="translate(0.84 -0.61) rotate(0.28)"/><rect class="cls-11" x="122.24" y="174.91" width="12.36" height="7.18" transform="translate(0.87 -0.62) rotate(0.28)"/><path class="cls-12" d="M122.7,169.91H118l-1-1h6.69Z"/><circle class="cls-11" cx="133.65" cy="172.7" r="0.92" transform="translate(-84.67 167.75) rotate(-50.96)"/><path class="cls-13" d="M164.8,178.5l3.82-18.5,2.42,0,1.63,18.45h14.92c.23-8.19.26-23.7,0-31.33l-35.38-.95c-.36,6.1-.55,22.94-1.19,32.28Z"/><path class="cls-13" d="M151,178.5c-1.41,26.11-2.73,59.35-2.73,59.35l-5.27,3.9h8.22L164.8,178.5l-7.64-1.21Z"/><path class="cls-13" d="M187.58,178.5l-11-6.06-3.9,6.06,6.54,63.25h8.22l-4.68-3.56A582.84,582.84,0,0,0,187.58,178.5Z"/><path class="cls-14" d="M170,157.81a.3.3,0,0,1-.29-.22l-2.05-7.67a.3.3,0,0,1,.59-.16l2.05,7.67a.3.3,0,0,1-.22.37Z"/><path class="cls-15" d="M148.41,103.22c-2.41,2.83-7,15.21-7,17.36S139.13,143,143,143.4s6.66-4.94,6.66-4.94Z"/><path class="cls-16" d="M188.18,105l-2.43,43.86-33.58-2.65-4.51,2.88c-1.86-10.74-3.18-23.49-1.41-34.6.56-3.53,2.28-12,3-15.49.38-1.91,15.83-10.16,18.64-10s4.1-.23,8.45.77c4.91,1.12,13.52,5.9,15.34,8.11s4.66,31.6,4,34.4c-1.51,6.85-5.33,18.92-5.33,18.92l-4.63-2.35"/><path class="cls-2" d="M158.54,136.09a.3.3,0,0,1-.14-.57,47.2,47.2,0,0,0,15-12.74.31.31,0,0,1,.43-.06.3.3,0,0,1,.06.43,47.83,47.83,0,0,1-15.18,12.9A.31.31,0,0,1,158.54,136.09Z"/><path class="cls-2" d="M168.74,140.05a.31.31,0,0,1-.19-.06.3.3,0,0,1-.05-.43c3.91-5,6.7-9.25,8.55-14.8a.3.3,0,0,1,.58.19c-1.87,5.64-4.7,9.91-8.64,15A.3.3,0,0,1,168.74,140.05Z"/><path class="cls-2" d="M153.16,143.7h0a.3.3,0,0,1-.28-.32c.4-5.41.89-10.58,1.36-15.58.35-3.75.72-7.62,1.05-11.64.4-4.84.48-14.05-1.78-17.88A.3.3,0,0,1,154,98c2.35,4,2.28,13.32,1.87,18.24-.34,4-.7,7.89-1.05,11.64-.47,5-1,10.17-1.36,15.57A.3.3,0,0,1,153.16,143.7Z"/><path class="cls-17" d="M165.37,82.57v7.08s5.72,6.06,11,.14l-.46-7.22Z"/><path class="cls-17" d="M179.36,77.61a2,2,0,0,0-.58-.17c.81-5.16.46-11.57-8-11.32-5,.15-6.54,4.77-6.86,9.61a1.48,1.48,0,0,0-1.14,0c-1.74.52-.53,4.91,1.27,5.59.67,4.42,3,7.25,6.35,7.5,3.09.23,5.51-2.17,7-5.79C179.25,82.57,181,78.35,179.36,77.61Z"/><path class="cls-18" d="M170.81,89.1l-.43,0a6.27,6.27,0,0,1-4.47-2.39.3.3,0,0,1,.47-.38,5.68,5.68,0,0,0,4,2.17,5.39,5.39,0,0,0,4.48-2,.3.3,0,1,1,.45.41A6.12,6.12,0,0,1,170.81,89.1Z"/><path class="cls-17" d="M147.67,149.1s4.6,9,6.19,4.88-1.69-7.76-1.69-7.76h0Z"/><path class="cls-19" d="M163.93,75.73,165,77.45h1.14v-3a6,6,0,0,0,1.59-3.12l8.61.61s-.27,2.12.41,3v3.41h1.06l1-.92S180.87,69.87,180,68a2,2,0,0,0-2.59-1.21s-2.84-3.33-6.8-2.2-7.15,3.56-7.75,5.23S163.93,75.73,163.93,75.73Z"/><path class="cls-17" d="M185.75,148.87s-4.5,5-2.27,8.14,6.9-5.78,6.9-5.78A37.44,37.44,0,0,0,185.75,148.87Z"/><path class="cls-2" d="M185.83,148.27a.3.3,0,0,1-.09-.59s.72-.27.91-1.56a4.3,4.3,0,0,0-.58-1.74c-.84-1.8-2.1-4.51.44-6.92,2-1.94,1.47-4.37,1-6.52-.3-1.28-.57-2.38-.19-3.17.53-1.09.59-11.19.64-18.57,0-6,.07-9.66.23-10.38a.3.3,0,1,1,.59.13c-.15.69-.18,5.33-.22,10.25-.07,10-.16,17.7-.7,18.82a4.94,4.94,0,0,0,.23,2.77c.52,2.19,1.17,4.92-1.13,7.1s-1.16,4.39-.31,6.23a4.27,4.27,0,0,1,.64,2.09c-.25,1.69-1.28,2-1.33,2Z"/><path class="cls-14" d="M155.63,157a.3.3,0,0,1-.24-.49,5.46,5.46,0,0,0-.92-7.77.3.3,0,0,1,.37-.48,6.07,6.07,0,0,1,1,8.63A.3.3,0,0,1,155.63,157Z"/><path class="cls-14" d="M181.38,161.46a.3.3,0,0,1-.07-.6,8.09,8.09,0,0,0,4.1-2.35.3.3,0,0,1,.44.41,8.71,8.71,0,0,1-4.41,2.53Z"/><path class="cls-15" d="M154.67,94.91c1.54,2.85,1.13,14.88,1.13,14.88v4.87s6.46-12.39,4.7-22.88Z"/><circle class="cls-9" cx="214.3" cy="66.11" r="2.04"/></g></g></svg>