<svg xmlns="http://www.w3.org/2000/svg" viewBox="0 0 157.4 190.56"><defs><style>.cls-1{fill:#dbf3fc;}.cls-2{fill:#3f3f3f;}.cls-3{fill:#2d2d2d;}.cls-4{fill:#efefef;}.cls-5{fill:#333;}.cls-6{fill:#ccc729;}.cls-7{fill:#c63e75;}.cls-8{fill:#c9613d;}.cls-9{fill:#9e9e9e;}.cls-10{fill:#fff;}.cls-11{fill:#cecece;}.cls-12{fill:#878787;}.cls-13{fill:#393762;}.cls-14{fill:#49478a;}.cls-15{fill:#ece0d3;}.cls-16{fill:#444;}.cls-17{fill:#e48868;}.cls-18{fill:#ba745d;}.cls-19{fill:#464473;}</style></defs><title>Asset 4</title><g id="Layer_2" data-name="Layer 2"><g id="Layer_1-2" data-name="Layer 1"><path class="cls-1" d="M16.74,92.86a40.28,40.28,0,0,1,5.42-13.72A43,43,0,0,1,41,63a21.41,21.41,0,0,0,9.13-1.78c3-1.32,3.86-2.59,5.92-3.82,4.41-2.63,8.38-1.62,16.77-1.06,7.53.5,12.52.84,18.19,0,11.85-1.67,14.91-6.61,19.25-4.47,6.12,3,1.92,13.74,8.37,17.9,7.06,4.56,17.77-4.93,22.3-.36,3.93,4-2.43,10.91,1.52,18.8,4.13,8.26,14.5,7.71,14.92,12.41.53,5.93-16.1,6.62-22.6,17.77-9,15.45,9.8,36.61,2.67,43.33-6,5.67-19.36-9.43-37.33-5.33-18.6,4.24-25.39,25.2-33.53,22.38-7.2-2.5-3.43-19.49-12.43-23.33-8.47-3.61-19,8.38-24.36,4.32-4.48-3.39,1.27-13-4.11-18.07-4.09-3.86-9.26,0-15.58-3.49C3.45,134.6-1.62,125.61.48,118.91c2.17-6.9,11.62-6.25,15.44-14.57A17.87,17.87,0,0,0,16.74,92.86Z"/><path class="cls-2" d="M166.34,45.91"/><rect class="cls-3" x="110.65" y="119.17" width="33" height="22.98" rx="0.96" ry="0.96" transform="translate(138.66 -51.3) rotate(47.84)"/><rect class="cls-4" x="111.12" y="119.52" width="32.16" height="22.06" rx="0.94" ry="0.94" transform="translate(138.6 -51.36) rotate(47.84)"/><rect class="cls-5" x="23.29" y="0.24" width="110.56" height="83.13" rx="2.24" ry="2.24" transform="translate(-0.19 0.36) rotate(-0.26)"/><ellipse class="cls-6" cx="27.05" cy="5.53" rx="1.92" ry="2" transform="translate(-0.03 0.12) rotate(-0.26)"/><ellipse class="cls-7" cx="32.07" cy="5.51" rx="1.92" ry="2" transform="translate(-0.03 0.15) rotate(-0.26)"/><ellipse class="cls-8" cx="37.19" cy="5.49" rx="1.92" ry="2" transform="translate(-0.02 0.17) rotate(-0.26)"/><rect class="cls-9" x="31.09" y="14.12" width="21.73" height="2.6" transform="translate(-0.07 0.19) rotate(-0.26)"/><rect class="cls-9" x="31.13" y="23.5" width="21.73" height="1.78" transform="translate(-0.11 0.19) rotate(-0.26)"/><rect class="cls-9" x="31.16" y="29.58" width="17.27" height="1.78" transform="translate(-0.14 0.18) rotate(-0.26)"/><rect class="cls-9" x="31.18" y="35.25" width="23.92" height="1.78" transform="translate(-0.17 0.2) rotate(-0.26)"/><rect class="cls-9" x="31.21" y="40.58" width="39.93" height="1.78" transform="translate(-0.19 0.24) rotate(-0.26)"/><rect class="cls-9" x="31.23" y="46.03" width="34.24" height="1.78" transform="translate(-0.22 0.22) rotate(-0.26)"/><rect class="cls-9" x="57.94" y="14" width="21.73" height="2.6" transform="translate(-0.07 0.32) rotate(-0.26)"/><rect class="cls-9" x="84.7" y="13.88" width="21.73" height="2.6" transform="matrix(1, 0, 0, 1, -0.07, 0.44)"/><rect class="cls-9" x="84.8" y="23.21" width="41.49" height="29.25" transform="translate(-0.17 0.49) rotate(-0.26)"/><ellipse class="cls-2" cx="39.53" cy="70.02" rx="9.08" ry="9.44" transform="translate(-0.32 0.18) rotate(-0.26)"/><ellipse class="cls-2" cx="118.46" cy="69.66" rx="9.08" ry="9.44" transform="translate(-0.32 0.55) rotate(-0.26)"/><ellipse class="cls-2" cx="79.92" cy="69.84" rx="9.08" ry="9.44" transform="translate(-0.32 0.37) rotate(-0.26)"/><path class="cls-10" d="M112,119.45h30.63a.77.77,0,0,1,.77.77v19.53a1.77,1.77,0,0,1-1.77,1.77H113a1.77,1.77,0,0,1-1.77-1.77V120.22a.77.77,0,0,1,.77-.77Z" transform="translate(138.57 -51.44) rotate(47.84)"/><ellipse class="cls-6" cx="124.53" cy="112.46" rx="0.55" ry="0.57" transform="translate(-43.26 111.87) rotate(-41.88)"/><ellipse class="cls-7" cx="125.58" cy="113.62" rx="0.55" ry="0.57" transform="translate(-43.77 112.87) rotate(-41.88)"/><ellipse class="cls-8" cx="126.6" cy="114.76" rx="0.55" ry="0.57" transform="translate(-44.27 113.83) rotate(-41.88)"/><rect class="cls-11" x="122.15" y="117.23" width="6.47" height="0.72" transform="translate(129.23 -54.27) rotate(48.12)"/><rect class="cls-11" x="120.3" y="119.01" width="6.47" height="0.49" transform="translate(129.85 -52.33) rotate(48.12)"/><rect class="cls-11" x="119.27" y="119.64" width="5.15" height="0.49" transform="translate(129.76 -50.86) rotate(48.12)"/><rect class="cls-11" x="117.76" y="121.43" width="7.13" height="0.49" transform="translate(130.92 -49.88) rotate(48.12)"/><rect class="cls-11" x="115.86" y="124.2" width="11.9" height="0.49" transform="translate(133.14 -49.32) rotate(48.12)"/><rect class="cls-11" x="115.02" y="124.58" width="10.2" height="0.49" transform="translate(132.86 -47.94) rotate(48.12)"/><rect class="cls-11" x="127.49" y="123.19" width="6.47" height="0.72" transform="translate(135.44 -56.26) rotate(48.12)"/><rect class="cls-11" x="132.82" y="129.13" width="6.47" height="0.72" transform="translate(141.63 -58.25) rotate(48.12)"/><rect class="cls-11" x="127.49" y="131.98" width="12.36" height="7.18" transform="translate(145.37 -54.46) rotate(48.12)"/><path class="cls-12" d="M136.21,125.56l-3.15-3.48.07-1.41h0l4.49,5h0Z"/><circle class="cls-11" cx="141.49" cy="135.55" r="0.92" transform="translate(-7.18 7.92) rotate(-3.13)"/><rect class="cls-3" x="14.17" y="117.36" width="33" height="22.98" rx="0.96" ry="0.96"/><rect class="cls-4" x="14.54" y="117.71" width="32.16" height="22.06" rx="0.94" ry="0.94"/><rect class="cls-3" x="27.28" y="140.34" width="6.69" height="1.88"/><path class="cls-3" d="M47.17,143.21c0,.55-7.3,1.1-16.31,1.1s-16.31-.54-16.31-1.1,7.3-1,16.31-1"/><path class="cls-10" d="M15.31,117.61H45.93a.77.77,0,0,1,.77.77v19.53a1.77,1.77,0,0,1-1.77,1.77H16.31a1.77,1.77,0,0,1-1.77-1.77V118.37a.77.77,0,0,1,.77-.77Z"/><ellipse class="cls-6" cx="15.42" cy="118.57" rx="0.55" ry="0.57" transform="translate(-103.23 133.41) rotate(-89.72)"/><ellipse class="cls-7" cx="16.98" cy="118.57" rx="0.55" ry="0.57" transform="translate(-101.67 134.98) rotate(-89.72)"/><ellipse class="cls-8" cx="18.51" cy="118.59" rx="0.55" ry="0.57" transform="translate(-100.17 136.52) rotate(-89.72)"/><rect class="cls-11" x="16.56" y="121.03" width="6.47" height="0.72" transform="translate(0.59 -0.1) rotate(0.28)"/><rect class="cls-11" x="16.55" y="123.63" width="6.47" height="0.49" transform="translate(0.61 -0.1) rotate(0.28)"/><rect class="cls-11" x="16.54" y="125.31" width="5.15" height="0.49" transform="translate(0.61 -0.09) rotate(0.28)"/><rect class="cls-11" x="16.53" y="126.89" width="7.13" height="0.49" transform="matrix(1, 0, 0, 1, 0.62, -0.1)"/><rect class="cls-11" x="16.53" y="128.39" width="11.9" height="0.49" transform="translate(0.63 -0.11) rotate(0.28)"/><rect class="cls-11" x="16.52" y="129.9" width="10.2" height="0.49" transform="translate(0.64 -0.1) rotate(0.28)"/><rect class="cls-11" x="24.56" y="121.07" width="6.47" height="0.72" transform="translate(0.59 -0.13) rotate(0.28)"/><rect class="cls-11" x="32.54" y="121.1" width="6.47" height="0.72" transform="translate(0.59 -0.17) rotate(0.28)"/><rect class="cls-11" x="32.51" y="123.72" width="12.36" height="7.18" transform="translate(0.62 -0.19) rotate(0.28)"/><path class="cls-12" d="M33,118.71H28.27l-1-1H34Z"/><circle class="cls-11" cx="43.92" cy="121.5" r="0.92" transform="translate(-78.12 79.09) rotate(-50.96)"/><path class="cls-13" d="M75.06,127.31l3.82-18.5,2.42,0,1.63,18.45H97.85c.23-8.19.26-23.7,0-31.33L62.44,95c-.36,6.1-.55,22.94-1.19,32.28Z"/><path class="cls-13" d="M61.25,127.31c-1.41,26.11-2.73,59.35-2.73,59.35l-5.27,3.9h8.22l13.59-63.25-7.64-1.21Z"/><path class="cls-13" d="M97.85,127.31l-11-6.06-3.9,6.06,6.54,63.25h8.22L93,187A582.84,582.84,0,0,0,97.85,127.31Z"/><path class="cls-14" d="M80.22,106.62a.3.3,0,0,1-.29-.22l-2.05-7.67a.3.3,0,0,1,.59-.16l2.05,7.67a.3.3,0,0,1-.21.37Z"/><path class="cls-15" d="M58.67,52c-2.41,2.83-7,15.21-7,17.36S49.4,91.82,53.25,92.21s6.66-4.94,6.66-4.94Z"/><path class="cls-16" d="M98.45,53.81,96,97.68,62.44,95l-4.51,2.88c-1.86-10.74-3.18-23.49-1.41-34.6.56-3.53,2.28-12,3-15.49.38-1.91,15.83-10.16,18.64-10s4.1-.23,8.45.77c4.91,1.12,13.52,5.9,15.34,8.11s4.66,31.6,4,34.4C104.47,88,100.65,100,100.65,100L96,97.68"/><path class="cls-2" d="M68.8,84.9a.3.3,0,0,1-.14-.57,47.2,47.2,0,0,0,15-12.74.31.31,0,0,1,.43-.06.3.3,0,0,1,.06.43,47.83,47.83,0,0,1-15.18,12.9A.31.31,0,0,1,68.8,84.9Z"/><path class="cls-2" d="M79,88.86a.31.31,0,0,1-.19-.06.3.3,0,0,1-.05-.43c3.91-5,6.7-9.25,8.55-14.8a.3.3,0,0,1,.58.19c-1.87,5.64-4.7,9.91-8.64,15A.3.3,0,0,1,79,88.86Z"/><path class="cls-2" d="M63.42,92.51h0a.3.3,0,0,1-.28-.32c.4-5.41.89-10.58,1.36-15.58.35-3.75.72-7.62,1.05-11.64.4-4.84.48-14.05-1.78-17.88a.3.3,0,1,1,.52-.31c2.35,4,2.28,13.32,1.87,18.24-.34,4-.7,7.89-1.05,11.64-.47,5-1,10.17-1.36,15.57A.3.3,0,0,1,63.42,92.51Z"/><path class="cls-17" d="M75.64,31.37v7.08s5.72,6.06,11,.14l-.46-7.22Z"/><path class="cls-17" d="M89.63,26.41a2,2,0,0,0-.58-.17c.81-5.16.46-11.57-8-11.32-5,.15-6.54,4.77-6.86,9.61a1.48,1.48,0,0,0-1.14,0c-1.74.52-.53,4.91,1.27,5.59.67,4.42,3,7.25,6.35,7.5,3.09.23,5.51-2.17,7-5.79C89.51,31.37,91.29,27.16,89.63,26.41Z"/><path class="cls-18" d="M81.07,37.91l-.43,0a6.27,6.27,0,0,1-4.47-2.39.3.3,0,1,1,.47-.38,5.68,5.68,0,0,0,4,2.17,5.39,5.39,0,0,0,4.48-2,.3.3,0,1,1,.45.41A6.12,6.12,0,0,1,81.07,37.91Z"/><path class="cls-17" d="M57.94,97.91s4.6,9,6.19,4.88S62.44,95,62.44,95h0Z"/><path class="cls-19" d="M74.2,24.54l1.07,1.72h1.14v-3A6,6,0,0,0,78,20.18l8.61.61s-.27,2.12.41,3v3.41h1.06l1-.92s2.09-7.57,1.24-9.46a2,2,0,0,0-2.59-1.21s-2.84-3.33-6.8-2.2-7.15,3.56-7.75,5.23S74.2,24.54,74.2,24.54Z"/><path class="cls-17" d="M96,97.68s-4.5,5-2.27,8.14,6.9-5.78,6.9-5.78A37.44,37.44,0,0,0,96,97.68Z"/><path class="cls-2" d="M96.1,97.07a.3.3,0,0,1-.09-.59s.72-.27.91-1.56a4.3,4.3,0,0,0-.58-1.74c-.84-1.8-2.1-4.51.44-6.92,2-1.94,1.47-4.37,1-6.52-.3-1.28-.57-2.38-.19-3.17.53-1.09.59-11.19.64-18.57,0-6,.07-9.66.23-10.38a.3.3,0,1,1,.59.13c-.15.69-.18,5.33-.22,10.25-.07,10-.16,17.7-.7,18.82a4.94,4.94,0,0,0,.23,2.77c.52,2.19,1.17,4.92-1.13,7.1s-1.16,4.39-.31,6.23A4.27,4.27,0,0,1,97.51,95c-.25,1.69-1.28,2-1.33,2Z"/><path class="cls-14" d="M65.9,105.84a.3.3,0,0,1-.24-.49,5.46,5.46,0,0,0-.92-7.77.3.3,0,0,1,.37-.48,6.07,6.07,0,0,1,1,8.63A.3.3,0,0,1,65.9,105.84Z"/><path class="cls-14" d="M91.64,110.27a.3.3,0,0,1-.07-.6,8.09,8.09,0,0,0,4.1-2.35.3.3,0,0,1,.44.41,8.71,8.71,0,0,1-4.41,2.53Z"/><path class="cls-15" d="M64.93,43.72c1.54,2.85,1.13,14.88,1.13,14.88v4.87s6.46-12.39,4.7-22.88Z"/><circle class="cls-9" cx="124.57" cy="14.92" r="2.04"/></g></g></svg>