<?xml version="1.0" encoding="utf-8"?>
<!-- Generator: Adobe Illustrator 21.0.0, SVG Export Plug-In . SVG Version: 6.00 Build 0)  -->
<svg version="1.1" id="Layer_1" xmlns="http://www.w3.org/2000/svg" xmlns:xlink="http://www.w3.org/1999/xlink" x="0px" y="0px"
	 viewBox="0 0 1366 768" style="enable-background:new 0 0 1366 768;" xml:space="preserve">
<style type="text/css">
	.st0{fill:#8B53E5;}
	.st1{fill:#5AC8E2;}
	.st2{fill:#58DBA6;}
	.st3{fill:#F467EA;}
</style>
<path class="st0" d="M302,150"/>
<path class="st0" d="M1490,433"/>
<path class="st1" d="M-85,200"/>
<path class="st2" d="M1366,300c0,0-98,34-68,52s-22,42-14,60s2,70,30,68s22,24,20,54s6,16,18,24s14,8,14,8V300z"/>
<path class="st1" d="M0,3c18.2,16.2,32.6,30.8,43,42c23.3,25.1,26.7,33,28.2,40.6c3.2,16.1-5.2,17.9-5.2,43.4c0,44,14,44-18,72
	s2,42-12,64S0,317,0,317C0,212.3,0,107.7,0,3z"/>
<path class="st1" d="M1350,281"/>
<path class="st3" d="M1528,433"/>
</svg>
