<?xml version="1.0" encoding="utf-8"?>
<!-- Generator: Adobe Illustrator 21.0.0, SVG Export Plug-In . SVG Version: 6.00 Build 0)  -->
<svg version="1.1" id="Browser" xmlns="http://www.w3.org/2000/svg" xmlns:xlink="http://www.w3.org/1999/xlink" x="0px" y="0px"
	 viewBox="0 0 1366 975" style="enable-background:new 0 0 1366 975;" xml:space="preserve">
<style type="text/css">
	.st0{fill:#2575EA;}
	.st1{fill:#CAE4FC;}
	.st2{fill:#F9F9F9;}
	.st3{fill:#515151;}
	.st4{fill:#87C23D;}
	.st5{fill:#EA6F4E;}
	.st6{fill:#EF7760;}
	.st7{fill:#E8A734;}
	.st8{fill:#EDEDED;}
	.st9{fill:#E0E0E0;}
	.st10{fill:#FCFCFC;}
	.st11{fill:#A5A5A5;}
	.st12{fill:#F7F7F7;}
	.st13{fill:#707070;}
	.st14{font-family:'SegoeUISymbol';}
	.st15{font-size:14px;}
	.st16{fill:#FFFFFF;}
	.st17{font-family:'MyriadPro-Regular';}
	.st18{font-size:30px;}
	.st19{fill:#F76696;}
	.st20{fill:#C895F9;}
</style>
<path class="st0" d="M-80,504"/>
<path class="st1" d="M-87,338"/>
<path class="st2" d="M1366,975H0V152c0-1.1,0.9-2,2-2h1362c1.1,0,2,0.9,2,2V975z"/>
<path class="st3" d="M1366,74H0V2c0-1.1,0.9-2,2-2h1362c1.1,0,2,0.9,2,2V74z"/>
<circle class="st4" cx="117.8" cy="36.8" r="13.3"/>
<circle class="st5" cx="36.8" cy="36.8" r="13.3"/>
<circle class="st6" cx="1332.8" cy="36.8" r="13.3"/>
<circle class="st7" cx="76.8" cy="36.8" r="13.3"/>
<rect y="74" class="st8" width="1366" height="76"/>
<circle class="st9" cx="36.8" cy="111.8" r="13.3"/>
<circle class="st9" cx="76.8" cy="111.8" r="13.3"/>
<circle class="st9" cx="117.8" cy="111.8" r="13.3"/>
<circle class="st9" cx="1285.8" cy="112.8" r="13.3"/>
<path class="st10" d="M1235.5,137h-1059c-3,0-5.5-2.5-5.5-5.5v-38c0-3,2.5-5.5,5.5-5.5h1059c3,0,5.5,2.5,5.5,5.5v38
	C1241,134.5,1238.5,137,1235.5,137z"/>
<rect x="1317" y="100" class="st11" width="32" height="8"/>
<rect x="1317" y="118" class="st11" width="32" height="8"/>
<rect x="1317" y="111" class="st11" width="32" height="4"/>
<path class="st12" d="M446.5,128h-261c-1.4,0-2.5-1.1-2.5-2.5v-25c0-1.4,1.1-2.5,2.5-2.5h261c1.4,0,2.5,1.1,2.5,2.5v25
	C449,126.9,447.9,128,446.5,128z"/>
<text transform="matrix(1 0 0 1 188.6665 116.1665)" class="st13 st14 st15">https://inson-saygo.com</text>
<text transform="matrix(1 0 0 1 569.6665 50.1665)" class="st16 st17 st18">Inson Concepcion</text>
<image style="overflow:visible;" width="1366" height="768" xlink:href="B90238E5.jpg"  transform="matrix(1 0 0 1.0742 0 150)">
</image>
<path class="st19" d="M1299,150c0,0-21,29,0,53s31,36,67,32v-85H1299z"/>
<path class="st20" d="M782,975c0,0,58-152,166-158s112-122,136-128s4-102,124-127s92-77,125-95s33-18,33-18v526H782z"/>
</svg>
