<?xml version="1.0" encoding="utf-8"?>
<!-- Generator: Adobe Illustrator 21.0.0, SVG Export Plug-In . SVG Version: 6.00 Build 0)  -->
<svg version="1.1" id="Layer_1" xmlns="http://www.w3.org/2000/svg" xmlns:xlink="http://www.w3.org/1999/xlink" x="0px" y="0px"
	 viewBox="0 0 1366 768" style="enable-background:new 0 0 1366 768;" xml:space="preserve">
<style type="text/css">
	.st0{fill:none;}
	.st1{fill:#BEBEE5;}
	.st2{fill:#A5D3EF;}
</style>
<polyline class="st0" points="1111,423 1122,412 1121,412 1120,411 1112,416 1107,411 1097,422 "/>
<line class="st0" x1="1095" y1="439" x2="1106" y2="418"/>
<path class="st1" d="M776,768c0,0,166-101,249-112s166-78,194-108s85-66,112-84s35-14,35-14v318H776z"/>
<path class="st2" d="M0,366c0,0,25,31,34,45s15,27,0,51s-12,51-12,69c0,5.8-0.7,9.4-1.9,12.2c-3.9,9.1-7.8,15.6-12.1,20.8
	c-1.5,1.8-6.5,7.9-8,7c-0.5-0.3-0.3-2.5,0-7l0,0l0,0L0,366z"/>
<path class="st1" d="M4,563"/>
</svg>
