<svg xmlns="http://www.w3.org/2000/svg" viewBox="0 0 157.4 177.42"><defs><style>.cls-1{fill:#dbf3fc;}.cls-2{fill:#393762;}.cls-3{fill:#49478a;}.cls-4{fill:#ece0d3;}.cls-5{fill:#444;}.cls-6{fill:#3f3f3f;}.cls-7{fill:#e48868;}.cls-8{fill:#ba745d;}.cls-9{fill:#464473;}</style></defs><title>Asset 3</title><g id="Layer_2" data-name="Layer 2"><g id="Layer_1-2" data-name="Layer 1"><path class="cls-1" d="M16.74,72.88a40.28,40.28,0,0,1,5.42-13.72A43,43,0,0,1,41,43a21.41,21.41,0,0,0,9.13-1.78c3-1.32,3.86-2.59,5.92-3.82,4.41-2.63,8.38-1.62,16.77-1.06,7.53.5,12.52.84,18.19,0,11.85-1.67,14.91-6.61,19.25-4.47,6.12,3,1.92,13.74,8.37,17.9,7.06,4.56,17.77-4.93,22.3-.36,3.93,4-2.43,10.91,1.52,18.8,4.13,8.26,14.5,7.71,14.92,12.41.53,5.93-16.1,6.62-22.6,17.77-9,15.45,9.8,36.61,2.67,43.33-6,5.67-19.36-9.43-37.33-5.33-18.6,4.24-25.39,25.2-33.53,22.38-7.2-2.5-3.43-19.49-12.43-23.33-8.47-3.61-19,8.38-24.36,4.32-4.48-3.39,1.27-13-4.11-18.07-4.09-3.86-9.26,0-15.58-3.49C3.45,114.63-1.62,105.63.48,98.93,2.65,92,12.1,92.68,15.92,84.37A17.87,17.87,0,0,0,16.74,72.88Z"/><path class="cls-2" d="M73.8,114.17l3.82-18.5,2.42,0,1.63,18.45H96.59c.23-8.19.26-23.7,0-31.33l-35.38-.95c-.36,6.1-.55,22.94-1.19,32.28Z"/><path class="cls-2" d="M60,114.17c-1.41,26.11-2.73,59.35-2.73,59.35L52,177.42h8.22L73.8,114.17,66.17,113Z"/><path class="cls-2" d="M96.59,114.17l-11-6.06-3.9,6.06,6.54,63.25h8.22l-4.68-3.56A582.84,582.84,0,0,0,96.59,114.17Z"/><path class="cls-3" d="M79,93.49a.3.3,0,0,1-.29-.22l-2.05-7.67a.3.3,0,0,1,.59-.16l2.05,7.67a.3.3,0,0,1-.21.37Z"/><path class="cls-4" d="M57.42,38.89c-2.41,2.83-7,15.21-7,17.36S48.14,78.68,52,79.07s6.66-4.94,6.66-4.94Z"/><path class="cls-5" d="M97.19,40.68,94.76,84.54,61.19,81.89l-4.51,2.88C54.83,74,53.5,61.28,55.27,50.17c.56-3.53,2.28-12,3-15.49.38-1.91,15.83-10.16,18.64-10s4.1-.23,8.45.77c4.91,1.12,13.52,5.9,15.34,8.11s4.66,31.6,4,34.4c-1.51,6.85-5.33,18.92-5.33,18.92l-4.63-2.35"/><path class="cls-6" d="M67.54,71.77a.3.3,0,0,1-.14-.57,47.2,47.2,0,0,0,15-12.74.31.31,0,0,1,.43-.06.3.3,0,0,1,.06.43,47.83,47.83,0,0,1-15.18,12.9A.31.31,0,0,1,67.54,71.77Z"/><path class="cls-6" d="M77.74,75.72a.31.31,0,0,1-.19-.06.3.3,0,0,1-.05-.43c3.91-5,6.7-9.25,8.55-14.8a.3.3,0,0,1,.58.19c-1.87,5.64-4.7,9.91-8.64,15A.3.3,0,0,1,77.74,75.72Z"/><path class="cls-6" d="M62.16,79.37h0a.3.3,0,0,1-.28-.32c.4-5.41.89-10.58,1.36-15.58.35-3.75.72-7.62,1.05-11.64.4-4.84.48-14.05-1.78-17.88a.3.3,0,1,1,.52-.31c2.35,4,2.28,13.32,1.87,18.24-.34,4-.7,7.89-1.05,11.64-.47,5-1,10.17-1.36,15.57A.3.3,0,0,1,62.16,79.37Z"/><path class="cls-7" d="M74.38,18.24v7.08s5.72,6.06,11,.14l-.46-7.22Z"/><path class="cls-7" d="M88.37,13.28a2,2,0,0,0-.58-.17c.81-5.16.46-11.57-8-11.32-5,.15-6.54,4.77-6.86,9.61a1.48,1.48,0,0,0-1.14,0c-1.74.52-.53,4.91,1.27,5.59.67,4.42,3,7.25,6.35,7.5,3.09.23,5.51-2.17,7-5.79C88.26,18.24,90,14,88.37,13.28Z"/><path class="cls-8" d="M79.81,24.77l-.43,0a6.27,6.27,0,0,1-4.47-2.39.3.3,0,1,1,.47-.38,5.68,5.68,0,0,0,4,2.17,5.39,5.39,0,0,0,4.48-2,.3.3,0,1,1,.45.41A6.12,6.12,0,0,1,79.81,24.77Z"/><path class="cls-7" d="M56.68,84.77s4.6,9,6.19,4.88-1.69-7.76-1.69-7.76h0Z"/><path class="cls-9" d="M72.94,11.4,74,13.12h1.14v-3A6,6,0,0,0,76.74,7l8.61.61s-.27,2.12.41,3V14h1.06l1-.92S89.88,5.54,89,3.65a2,2,0,0,0-2.59-1.21S83.61-.9,79.64.24,72.5,3.8,71.89,5.47,72.94,11.4,72.94,11.4Z"/><path class="cls-7" d="M94.76,84.54s-4.5,5-2.27,8.14,6.9-5.78,6.9-5.78A37.44,37.44,0,0,0,94.76,84.54Z"/><path class="cls-6" d="M94.84,83.94a.3.3,0,0,1-.09-.59s.72-.27.91-1.56A4.3,4.3,0,0,0,95.07,80c-.84-1.8-2.1-4.51.44-6.92,2-1.94,1.47-4.37,1-6.52-.3-1.28-.57-2.38-.19-3.17.53-1.09.59-11.19.64-18.57,0-6,.07-9.66.23-10.38a.3.3,0,1,1,.59.13c-.15.69-.18,5.33-.22,10.25-.07,10-.16,17.7-.7,18.82a4.94,4.94,0,0,0,.23,2.77c.52,2.19,1.17,4.92-1.13,7.1s-1.16,4.39-.31,6.23a4.27,4.27,0,0,1,.64,2.09c-.25,1.69-1.28,2-1.33,2Z"/><path class="cls-3" d="M64.64,92.7a.3.3,0,0,1-.24-.49,5.46,5.46,0,0,0-.92-7.77.3.3,0,0,1,.37-.48,6.07,6.07,0,0,1,1,8.63A.3.3,0,0,1,64.64,92.7Z"/><path class="cls-3" d="M90.38,97.13a.3.3,0,0,1-.07-.6,8.09,8.09,0,0,0,4.1-2.35.3.3,0,0,1,.44.41,8.71,8.71,0,0,1-4.41,2.53Z"/><path class="cls-4" d="M63.67,30.58c1.54,2.85,1.13,14.88,1.13,14.88v4.87s6.46-12.39,4.7-22.88Z"/></g></g></svg>