<svg xmlns="http://www.w3.org/2000/svg" viewBox="0 0 1368.03 1073.46"><defs><style>.cls-1{fill:#efefef;}.cls-2{fill:#a5a5a5;}.cls-3{fill:#fff;opacity:0.3;}.cls-4{fill:#ccc;}.cls-5{fill:#223666;}.cls-6{fill:#e2e2e2;}.cls-7{fill:#f95a78;}.cls-8{fill:#f9f94b;}.cls-9{fill:#f49625;}.cls-10{fill:#aec647;}.cls-11{fill:#f3ae1b;}.cls-12{fill:#df3f11;}.cls-13{fill:#bcdede;}.cls-14{fill:#34495e;}.cls-15{fill:#e2e1e0;}.cls-16{fill:#ff614f;}.cls-17{fill:#84e570;}.cls-18{fill:#7d57ff;}.cls-19{fill:#45dd86;}.cls-20{fill:#ecf0f1;}.cls-21{fill:#c84119;}.cls-22{fill:#6bb5ce;}.cls-23{opacity:0.1;}.cls-24{fill:#ededed;}</style></defs><title>Asset 15</title><g id="Layer_2" data-name="Layer 2"><g id="Web_and_Development" data-name="Web and Development"><g id="Responsive_Web" data-name="Responsive Web"><g id="Responsive_Web-2" data-name="Responsive Web"><g id="Line"><path class="cls-1" d="M862.4,892.92l6.41-17.23s-9.29-6.34-18.76-12.23c-4.74-2.95-9.52-5.79-13.14-7.86l-4.42-2.47-1.75-.94-5.12,18,5.73,3.17c3.48,2,8.12,4.76,12.74,7.62C853.31,886.71,862.4,892.92,862.4,892.92Z"/><path class="cls-1" d="M915.24,933.13l7.56-16.36S914,909.28,905,902.25s-18.13-13.81-18.13-13.81l-6.8,17s9,6.58,17.75,13.51S915.24,933.13,915.24,933.13Z"/><path class="cls-1" d="M965,979.8l8.69-15.29-5.18-5.33c-3.1-3.21-7.34-7.3-11.54-11.46-8.47-8.18-17.13-16-17.13-16l-7.92,16s8.46,7.65,16.75,15.65c4.1,4.07,8.24,8.07,11.27,11.2Z"/><path class="cls-1" d="M1010.91,1033.1l9.9-13.88s-1.89-2.44-4.71-6.11-6.73-8.34-10.57-13.09-7.84-9.29-10.84-12.69l-5-5.63-9.08,14.87,4.88,5.48c2.92,3.31,6.71,7.87,10.56,12.36l10.29,12.75Z"/><path class="cls-1" d="M963.47,68.7,977.38,73s.58-3.45,1.46-8.63,1.68-12.19,2.63-19.16,1.59-14,2.14-19.27l.87-8.79-14.17-2.17s-.33,3.38-.83,8.45-1,11.85-2.06,18.54-1.76,13.45-2.54,18.47S963.47,68.7,963.47,68.7Z"/><path class="cls-1" d="M946,146.68l13.35,6.81s.91-3.31,2.29-8.25,3.06-11.65,4.66-18.37,3.36-13.38,4.32-18.53l1.75-8.52-13.74-5.15-1.7,8.23c-.92,5-2.65,11.43-4.18,17.95s-3.11,13-4.53,17.81Z"/><path class="cls-1" d="M921.38,221.35l12.7,8.79,3-7.81c1.84-4.67,3.93-11.13,6.18-17.47s4.52-12.7,6-17.63l2.54-8.12-13.14-7.51-2.47,7.9c-1.4,4.79-3.68,10.94-5.81,17.18s-4.23,12.5-6,17Z"/><path class="cls-1" d="M891.29,292.56l12.06,10.31,10.84-24c2.75-6,5.17-12.2,7.13-16.76l3.19-7.65L912,245.14l-3.13,7.5c-1.92,4.46-4.28,10.56-7,16.41C896.6,280.8,891.29,292.56,891.29,292.56Z"/><path class="cls-1" d="M856.8,360.22l11.46,11.47,3.89-7c2.3-4.24,5.25-10,8.25-15.73l8.22-15.77,3.57-7.34-11.86-10.72-3.5,7.2-8.08,15.51c-3,5.63-5.85,11.31-8.12,15.48Z"/><path class="cls-1" d="M1130,929.18l4-24.54s-13.63-3.91-27.39-7.15c-6.88-1.62-13.79-3.1-19-4.12l-6.34-1.16-2.51-.42-2.16,25,8.22,1.47c5,1,11.72,2.42,18.42,4C1116.63,925.37,1130,929.18,1130,929.18Z"/><path class="cls-1" d="M292.46,388.07l-13.63,5.65s2.49,11,5.17,22c1.34,5.47,2.73,10.93,3.81,15l1.87,6.91L303,430.74l-1.75-6.49c-1-4-2.4-9.29-3.71-14.65C294.9,398.89,292.46,388.07,292.46,388.07Z"/><path class="cls-1" d="M279.18,323.06l-13.83,4.63,1.28,7,2.95,15.3c2.19,11.11,4.53,22.16,4.53,22.16l13.7-5.3s-2.3-10.89-4.47-21.83l-2.9-15.07Z"/><path class="cls-1" d="M268.42,257.17l-14,3.67,1,7c.65,4.23,1.51,9.85,2.37,15.48s1.82,11.23,2.5,15.44l1.17,7,13.89-4.31-1.16-6.92c-.66-4.15-1.63-9.66-2.46-15.21s-1.7-11.1-2.33-15.26S268.42,257.17,268.42,257.17Z"/><path class="cls-1" d="M794,788.49l-3.21-18.78-16.55,5.45-6.07,2c-1.93.67-3.72,1.41-5.25,2l-5.13,2,3.83,18.55,5-1.93c1.51-.56,3.26-1.29,5.15-2l6-2Z"/><path class="cls-1" d="M842.88,775.34l-2.39-19-5.24,1.2c-3.14.77-7.35,1.59-11.52,2.75l-16.67,4.63L810,783.78l16.39-4.56c4.1-1.14,8.25-1.94,11.34-2.69Z"/></g><g id="Blooming"><path class="cls-2" d="M1013.14,867.49C974,820.8,991.82,711.88,991.82,711.88H875.29S893.06,820.8,854,867.49s-84.77,46.69-84.77,46.69v26.25h328.72V914.17S1052.24,914.17,1013.14,867.49Z"/><rect class="cls-3" x="769.19" y="914.17" width="328.72" height="26.25"/><path class="cls-4" d="M1368,641.85c0,38.68-23.19,70-51.79,70H550.87c-28.6,0-51.79-31.35-51.79-70V70c0-38.67,23.19-70,51.79-70h765.36c28.6,0,51.79,31.35,51.79,70Z"/><path class="cls-5" d="M499.08,70V641.85a88.45,88.45,0,0,0,7.86,37h853.22a88.45,88.45,0,0,0,7.86-37V70c0-18.13-5.14-34.58-13.5-47H512.58C504.22,35.43,499.08,51.89,499.08,70Z"/><rect class="cls-6" x="536.48" y="46.69" width="794.15" height="607.82"/><rect class="cls-7" x="584.54" y="183.31" width="124.65" height="155.9"/><rect class="cls-8" x="884.47" y="183.31" width="124.65" height="155.9"/><rect class="cls-9" x="1150.74" y="183.31" width="124.65" height="155.9"/><rect class="cls-10" x="584.54" y="371.92" width="199.85" height="11.36"/><rect class="cls-11" x="584.54" y="405.99" width="199.85" height="11.36"/><rect class="cls-12" x="584.54" y="437.56" width="199.85" height="11.35"/><rect class="cls-11" x="781.28" y="509.5" width="164.06" height="11.35"/><rect class="cls-10" x="609.59" y="509.5" width="151.42" height="11.35"/><rect class="cls-11" x="609.59" y="541.06" width="151.42" height="11.36"/><rect class="cls-10" x="781.28" y="541.06" width="77.05" height="11.36"/><rect class="cls-10" x="609.59" y="602.13" width="151.42" height="11.35"/><rect class="cls-11" x="781.28" y="602.13" width="77.05" height="11.35"/><rect class="cls-11" x="947.06" y="571.35" width="55.08" height="11.36"/><rect class="cls-13" x="609.59" y="472.89" width="327.1" height="11.37"/><rect class="cls-13" x="609.59" y="571.35" width="327.1" height="11.36"/><rect class="cls-10" x="947.06" y="638.26" width="55.08" height="11.36"/><rect class="cls-10" x="609.59" y="638.26" width="327.1" height="11.36"/><rect class="cls-11" x="1167.04" y="513.43" width="132.66" height="11.36"/><rect class="cls-10" x="1028.23" y="513.43" width="122.43" height="11.36"/><rect class="cls-11" x="1028.23" y="544.99" width="122.43" height="11.36"/><rect class="cls-10" x="1167.04" y="544.99" width="62.29" height="11.36"/><rect class="cls-10" x="1028.23" y="606.06" width="122.43" height="11.36"/><rect class="cls-11" x="1167.04" y="606.06" width="62.29" height="11.36"/><rect class="cls-13" x="1028.23" y="476.83" width="264.48" height="11.37"/><rect class="cls-13" x="1028.23" y="575.28" width="264.48" height="11.36"/><rect class="cls-10" x="1028.23" y="642.18" width="264.48" height="11.36"/><rect class="cls-14" x="536.62" y="46.27" width="794.49" height="106.39"/><path class="cls-15" d="M946.8,91.74c0,13.1-7.78,23.71-17.38,23.71H587.13c-9.6,0-17.39-10.61-17.39-23.71h0c0-13.09,7.78-23.71,17.39-23.71H929.41c9.6,0,17.38,10.61,17.38,23.71Z"/><path class="cls-16" d="M1224.3,83.33c0,8.46-5,15.32-11.23,15.32s-11.23-6.86-11.23-15.32,5-15.3,11.23-15.3S1224.3,74.89,1224.3,83.33Z"/><path class="cls-17" d="M1261.41,83.33c0,8.46-5,15.32-11.23,15.32S1239,91.79,1239,83.33s5-15.3,11.23-15.3S1261.41,74.89,1261.41,83.33Z"/><path class="cls-18" d="M1300.09,83.33c0,8.46-5,15.32-11.23,15.32s-11.23-6.86-11.23-15.32,5-15.3,11.23-15.3S1300.09,74.89,1300.09,83.33Z"/></g><g id="Phone"><rect class="cls-10" x="1275.14" y="641.91" width="18.78" height="4.99"/><rect class="cls-13" x="1233.29" y="611.97" width="79.73" height="4.99"/><path class="cls-10" d="M1365.17,675.44"/><path class="cls-19" d="M1396.54,434.14"/><path class="cls-16" d="M1372.41,434.14"/><path class="cls-16" d="M1367.33,440.87"/></g><g id="Web"><path class="cls-20" d="M1134,1043.35c0,16.63-6.84,30.12-15.27,30.12H750.95c-8.44,0-15.27-13.48-15.27-30.12V508.85c0-16.62,6.84-30.11,15.27-30.11h367.82c8.44,0,15.27,13.48,15.27,30.11Z"/><path class="cls-14" d="M1118.77,385H750.95c-8.44,0-15.27,12.2-15.27,27.26V517.86H1134V412.24C1134,397.18,1127.21,385,1118.77,385Z"/><path class="cls-16" d="M1070.83,406.58c0,6.21-3.42,11.25-7.63,11.25s-7.64-5-7.64-11.25,3.42-11.26,7.64-11.26S1070.83,400.37,1070.83,406.58Z"/><path class="cls-17" d="M1096.08,406.58c0,6.21-3.42,11.25-7.64,11.25s-7.64-5-7.64-11.25,3.42-11.26,7.64-11.26S1096.08,400.37,1096.08,406.58Z"/><path class="cls-18" d="M1122.38,406.58c0,6.21-3.42,11.25-7.64,11.25s-7.64-5-7.64-11.25,3.42-11.26,7.64-11.26S1122.38,400.37,1122.38,406.58Z"/><path class="cls-15" d="M1012,420.48c0,9.63-5.3,17.44-11.83,17.44H767.39c-6.53,0-11.83-7.81-11.83-17.44h0c0-9.62,5.3-17.43,11.83-17.43h232.8c6.53,0,11.83,7.81,11.83,17.43Z"/><rect class="cls-7" x="766.08" y="563.91" width="84.78" height="114.63"/><rect class="cls-8" x="892.47" y="563.91" width="84.78" height="114.63"/><rect class="cls-9" x="1013.17" y="563.91" width="84.78" height="114.63"/><rect class="cls-10" x="771.14" y="719.01" width="96.77" height="6.51"/><rect class="cls-11" x="771.14" y="738.52" width="96.77" height="6.51"/><rect class="cls-12" x="771.14" y="756.59" width="96.77" height="6.51"/><rect class="cls-10" x="771.14" y="924.52" width="96.77" height="6.51"/><rect class="cls-10" x="771.14" y="903.08" width="96.77" height="6.5"/><rect class="cls-10" x="771.14" y="946.68" width="96.77" height="6.51"/><rect class="cls-11" x="886.62" y="797.79" width="96.76" height="6.51"/><rect class="cls-10" x="784.5" y="797.79" width="96.77" height="6.51"/><rect class="cls-11" x="784.5" y="815.86" width="96.77" height="6.51"/><rect class="cls-10" x="886.62" y="815.86" width="45.44" height="6.51"/><rect class="cls-10" x="784.5" y="850.83" width="96.77" height="6.5"/><rect class="cls-11" x="886.62" y="850.83" width="45.44" height="6.5"/><rect class="cls-11" x="1002.09" y="833.21" width="45.44" height="6.5"/><rect class="cls-13" x="784.5" y="776.83" width="209.04" height="6.5"/><rect class="cls-13" x="784.5" y="833.21" width="209.04" height="6.5"/><rect class="cls-10" x="1002.09" y="871.51" width="45.44" height="6.51"/><rect class="cls-10" x="784.5" y="871.51" width="209.04" height="6.51"/><rect class="cls-21" x="988.73" y="964.76" width="45.44" height="6.5"/><rect class="cls-22" x="771.14" y="964.76" width="209.04" height="6.5"/><path class="cls-23" d="M1118.77,385H934.86v688.48h183.91c8.44,0,15.27-13.48,15.27-30.12V412.24C1134,397.18,1127.21,385,1118.77,385Z"/></g><g id="Tablet"><g id="Acces"><g id="Tablet-2" data-name="Tablet"><path class="cls-14" d="M654.74,783c0,63.77-6.21,60.13-53.38,60.13H51.6c-47.17,0-51.6-6-51.6-69.75V275.48c0-63.77,9.77-67.35,56.94-67.35l528.41-.73c47.16,0,68.92-12.69,68.92,51.09Z"/><rect class="cls-24" x="40.6" y="267.27" width="573.52" height="515.05"/></g></g><rect class="cls-7" x="75.2" y="374.21" width="89.98" height="121.65"/><rect class="cls-8" x="291.71" y="374.21" width="89.99" height="121.65"/><rect class="cls-9" x="483.93" y="374.21" width="89.98" height="121.65"/><rect class="cls-10" x="75.2" y="521.39" width="144.27" height="8.86"/><rect class="cls-11" x="75.2" y="547.98" width="144.27" height="8.87"/><rect class="cls-12" x="75.2" y="572.61" width="144.27" height="8.86"/><rect class="cls-11" x="217.22" y="628.75" width="118.43" height="8.86"/><rect class="cls-10" x="93.28" y="628.75" width="109.31" height="8.86"/><rect class="cls-11" x="93.28" y="653.37" width="109.31" height="8.87"/><rect class="cls-10" x="217.22" y="653.37" width="55.62" height="8.87"/><rect class="cls-10" x="93.28" y="701.03" width="109.31" height="8.87"/><rect class="cls-11" x="217.22" y="701.03" width="55.62" height="8.87"/><rect class="cls-11" x="336.88" y="677.01" width="39.76" height="8.87"/><rect class="cls-13" x="93.28" y="600.19" width="236.13" height="8.87"/><rect class="cls-13" x="93.28" y="677.01" width="236.13" height="8.87"/><rect class="cls-10" x="336.88" y="729.22" width="39.76" height="8.86"/><rect class="cls-10" x="93.28" y="729.22" width="236.13" height="8.86"/><rect class="cls-11" x="495.69" y="631.82" width="95.76" height="8.87"/><rect class="cls-10" x="395.48" y="631.82" width="88.38" height="8.87"/><rect class="cls-11" x="395.48" y="656.45" width="88.38" height="8.86"/><rect class="cls-10" x="495.69" y="656.45" width="44.97" height="8.86"/><rect class="cls-10" x="395.48" y="704.09" width="88.38" height="8.87"/><rect class="cls-11" x="495.69" y="704.09" width="44.97" height="8.87"/><rect class="cls-13" x="395.48" y="603.26" width="190.91" height="8.87"/><rect class="cls-13" x="395.48" y="680.08" width="190.91" height="8.87"/><rect class="cls-10" x="395.48" y="732.29" width="190.91" height="8.87"/><rect class="cls-14" x="40.6" y="267.27" width="573.52" height="83.03"/><path class="cls-15" d="M336.7,302.77c0,10.21-5.62,18.5-12.55,18.5H77.06c-6.93,0-12.55-8.29-12.55-18.5h0c0-10.22,5.62-18.51,12.55-18.51H324.15c6.93,0,12.55,8.29,12.55,18.51Z"/><path class="cls-16" d="M537,296.2c0,6.61-3.63,12-8.1,12s-8.11-5.35-8.11-12,3.63-11.95,8.11-11.95S537,289.62,537,296.2Z"/><path class="cls-17" d="M563.81,296.2c0,6.61-3.63,12-8.11,12s-8.11-5.35-8.11-12,3.63-11.95,8.11-11.95S563.81,289.62,563.81,296.2Z"/><path class="cls-18" d="M591.73,296.2c0,6.61-3.63,12-8.11,12s-8.11-5.35-8.11-12,3.63-11.95,8.11-11.95S591.73,289.62,591.73,296.2Z"/></g></g></g></g></g></svg>